<svg width="708" height="708" viewBox="0 0 708 708" fill="none" xmlns="http://www.w3.org/2000/svg">
<path fill-rule="evenodd" clip-rule="evenodd" d="M378 44H284V47H270H264H248H223L207 55.5V107H225V149H171V131H121L68 183V272H74V290H22V311V366.5V405H91V374.5H120V381H103.5V476.5C115.833 485.5 141 503.9 143 505.5C143.448 505.858 143.768 506.153 144.039 506.403C145.284 507.548 145.523 507.769 152.5 509C161 510.5 167.5 512.5 169 514.5C169.233 514.81 169.489 515.108 169.742 515.402C171.119 517.001 172.38 518.465 169 521C165 524 163.5 527 167 535.5C170.5 544 180 573.5 184 590V602H169V634L188 657L219 658L230.5 660L243 662.5L260 664L268 667H276.5L288.5 675L294 676L300 681H465L507 640V549H491V508H496H498H519H534H565L597 476V470H602H603H612L623 457V415H656H679H691V395H679V389V388V300H668V290H642L627 314H625V269.667L642.5 270L642 249L602.168 182.281L620 172V151H554V93H482L465 104H444V91H391V108H378V102V44ZM117 272V197H146V216H177V236.5L210 269.5V296H143V311H116L101 291V272H117ZM220 588V602H224V612H281V576H376V612H423.912L454 584.901V561H429L411 538V486H454V446V439H435H433H410L392 429H227L201 403V391V384V366.5H167.5V381L160.5 393H143V403H160.5V462.5H143V474.5H185.5C195.5 484 220 522 223 527.5C225.426 531.948 225.236 534.434 225.075 536.545C225.037 537.044 225 537.522 225 538C225 539.068 224.818 540.956 224.609 543.12C224.328 546.023 224 549.422 224 552C224 554.391 224.565 556.924 225.094 559.297C225.561 561.39 226 563.36 226 565V575.5C226 579.5 224 585.5 223 588H220ZM259 384H229V342H205.5H201H200V336H239L267 313V268H272.5V329H259V384ZM296.5 329H314V384H346V328H393L457 264H502V275H509V236L463 136H443.457L425 170H378V179H315.5H310L308.5 173.5L305 170V169V108H301H284H270V99H264V102V107V191H231H225H193V201H227L255 229V245H296.5V329ZM470.49 309L419 360V384V389V406H433V373L448 360V339L475 313H510V309H502H501H470.49ZM481 439H498V460H519V447V436V381H511H502H481V437V439ZM550 377H581V389H656V395H623H602V415V446H597V436H565V401H550V377ZM590 275V269V266V233L573.038 199.077L548 213.514V275H590Z" fill="#181B21"/>
<path d="M509.5 313V327.5H460" stroke="#272A30"/>
<path d="M494.5 313V347.5H503.5V313" stroke="#272A30"/>
<path d="M510 309.5H537.5V312.5H510" stroke="#272A30"/>
<path d="M508.5 275V309" stroke="#272A30"/>
<path d="M548.5 275V357.5L480.5 356.5V388" stroke="#272A30"/>
<path d="M553.5 142.5H540.5V153.5H553.5V142.5Z" fill="#272A30" stroke="#272A30"/>
<path d="M507 172L486.5 186L495 204.5L518 187L507 172Z" fill="#272A30" stroke="#272A30"/>
<path d="M520 170.5L510.5 177.5L514 186.5L525.5 177.5L520 170.5Z" fill="#272A30" stroke="#272A30"/>
<path d="M562.5 275.5H552.5V285.5H562.5V275.5Z" fill="#272A30" stroke="#272A30"/>
<path d="M589.5 302V329.5H580.5V332.5H569.5V355.5H561H586" stroke="#272A30"/>
<path d="M586.5 338.5H575.5V349.5H586.5V355.5H597.5V344.5H586.5V338.5Z" fill="#272A30" stroke="#272A30"/>
<path d="M454.5 333V439" stroke="#272A30"/>
<path d="M564.5 464.5L557 457.5L540.5 474.5L548 482L564.5 464.5Z" fill="#272A30" stroke="#272A30"/>
<path d="M421.5 486V551.5" stroke="#272A30"/>
<path d="M481 388.5H477.5V438.5H481H454.5" stroke="#272A30"/>
<path d="M354.5 328V396.5H305.5V329" stroke="#272A30"/>
<path d="M360.5 671.5V680.5H337.5V660.5H349.5V671.5H360.5Z" fill="#272A30" stroke="#272A30"/>
<path d="M285.5 673C285.5 672.6 285.5 656.5 285.5 648.5H246H291.5V675.5" stroke="#272A30"/>
<path d="M143.491 462.525V428" stroke="#272A30"/>
<path d="M167.5 367H155.5V393" stroke="#272A30"/>
<path d="M119.5 381V393.5H143" stroke="#272A30"/>
<path d="M329.5 66.5L330 62L347.5 65V73.5H345L344.5 79L337.5 78.5L337 80L330 79L330.5 73.5L329.5 72.5L323.5 72L324.5 66.5H329.5Z" fill="#272A30" stroke="#272A30"/>
<path d="M378.5 170V146" stroke="#272A30"/>
<path d="M270.5 365.5H259.5V383.5H270.5V365.5Z" fill="#272A30" stroke="#272A30"/>
<path d="M263.5 184.5V190.5H257.5V184.5H263.5Z" fill="#272A30" stroke="#272A30"/>
<path d="M145.5 184.5V196.5H135.5V184.5H145.5Z" fill="#272A30" stroke="#272A30"/>
<path d="M83.5 218.5H68.5V231.5H83.5V218.5Z" fill="#272A30" stroke="#272A30"/>
<path d="M116.5 321.5V311.5H128.5V321.5H116.5Z" fill="#272A30" stroke="#272A30"/>
<path d="M198.5 326.5V335.5H210.5V326.5H198.5Z" fill="#272A30" stroke="#272A30"/>
<path d="M256 245V322" stroke="#272A30"/>
<path d="M193 201L177 216" stroke="#272A30"/>
<path d="M286 245C286 246.5 286 247.5 286 248.5C286 249.5 287 252 290 252C292.4 252 295.167 252 296.5 252" stroke="#272A30"/>
<path d="M22 375.5H69.5V328.5H22" stroke="#272A30"/>
<path d="M33 328.5V306H54.5" stroke="#272A30"/>
<path d="M57.5 347.5V328.5H69.5V347.5H57.5Z" fill="#272A30" stroke="#272A30"/>
<path d="M33.5 365H22.5V375H33.5V365Z" fill="#272A30" stroke="#272A30"/>
<path d="M391 108H378V119H391V108Z" fill="#272A30" stroke="#272A30"/>
<mask id="mask0_2_137" style="mask-type:alpha" maskUnits="userSpaceOnUse" x="22" y="44" width="669" height="637">
<path fill-rule="evenodd" clip-rule="evenodd" d="M378 44H284V47H270H264H248H223L207 55.5V107H225V149H171V131H121L68 183V272H74V290H22V311V366.5V405H91V374.5H120V381H103.5V476.5C115.833 485.5 141 503.9 143 505.5C143.448 505.858 143.768 506.153 144.039 506.403C145.284 507.548 145.523 507.769 152.5 509C161 510.5 167.5 512.5 169 514.5C169.233 514.81 169.489 515.108 169.742 515.402C171.119 517.001 172.38 518.465 169 521C165 524 163.5 527 167 535.5C170.5 544 180 573.5 184 590V602H169V634L188 657L219 658L230.5 660L243 662.5L260 664L268 667H276.5L288.5 675L294 676L300 681H465L507 640V549H491V508H496H498H519H534H565L597 476V470H602H603H612L623 457V415H656H679H691V395H679V389V388V300H668V290H642L627 314H625V269.667L642.5 270L642 249L602.168 182.281L620 172V151H554V93H482L465 104H444V91H391V108H378V102V44ZM117 272V197H146V216H177V236.5L210 269.5V296H143V311H116L101 291V272H117ZM220 588V602H224V612H281V576H376V612H423.912L454 584.901V561H429L411 538V486H454V446V439H435H433H410L392 429H227L201 403V391V384V366.5H167.5V381L160.5 393H143V403H160.5V462.5H143V474.5H185.5C195.5 484 220 522 223 527.5C225.426 531.948 225.236 534.434 225.075 536.545C225.037 537.044 225 537.522 225 538C225 539.068 224.818 540.956 224.609 543.12C224.328 546.023 224 549.422 224 552C224 554.391 224.565 556.924 225.094 559.297C225.561 561.39 226 563.36 226 565V575.5C226 579.5 224 585.5 223 588H220ZM259 384H229V342H205.5H201H200V336H239L267 313V268H272.5V329H259V384ZM296.5 329H314V384H346V328H393L457 264H502V275H509V236L463 136H443.457L425 170H378V179H315.5H310L308.5 173.5L305 170V169V108H301H284H270V99H264V102V107V191H231H225H193V201H227L255 229V245H296.5V329ZM470.49 309L419 360V384V389V406H433V373L448 360V339L475 313H510V309H502H501H470.49ZM481 439H498V460H519V447V436V381H511H502H481V437V439ZM550 377H581V389H656V395H623H602V415V446H597V436H565V401H550V377ZM590 275V269V266V233L573.038 199.077L548 213.514V275H590Z" fill="#181B21"/>
</mask>
<g mask="url(#mask0_2_137)">
<path d="M254 605.5V670L288.5 700.5L466 696L484 670L422 608L376.5 551.5H276L254 605.5Z" fill="url(#paint0_linear_2_137)" fill-opacity="0.2"/>
<path d="M265.5 103.5V44L287 28.5L379 25L461 97V139L455 181L383.5 195H298L265.5 103.5Z" fill="url(#paint1_linear_2_137)" fill-opacity="0.2"/>
<path d="M255 612H252V664H255V612Z" fill="#30D9D4"/>
<path d="M480.934 665.287L425.836 610.189L423.715 612.31L478.813 667.408L480.934 665.287Z" fill="#30D9D4"/>
<path d="M462 104H459V136H462V104Z" fill="#30D9D4"/>
<path d="M267 47H264V99H267V47Z" fill="#30D9D4"/>
<path d="M152 469H100L60 448L-6 416.5L9.5 300L65 226.5H118L208 293V339L245 338L270.5 318.5L269 271.5V241.5L275.5 226L503.5 258.5L508 275H548L588 271L628 272.5L690 276.5C695.833 302.833 707.5 356.4 707.5 360C707.5 363.6 702.5 435.5 700 471L598.5 476V443.5L599.5 427L588 401.5L554 393H517.5L481 439H454L446.5 449.5L152 469Z" fill="url(#paint2_linear_2_137)" fill-opacity="0.26"/>
<path d="M117 225H68V228H117V225Z" fill="#E44C4D"/>
<path d="M210 296H207V336H210V296Z" fill="#E44C4D"/>
<path d="M271 245H268V268H271V245Z" fill="#E44C4D"/>
<path d="M143 467.02H103.542V469.979H143V467.02Z" fill="#E44C4D"/>
<path d="M600 446H597V470H600V446Z" fill="#E44C4D"/>
<path d="M550 391H519V394H550V391Z" fill="#E44C4D"/>
<path d="M625 270H590V273H625V270Z" fill="#E44C4D"/>
</g>
<path d="M23 400.999V332C23 330.343 24.3431 329 26 329H30C31.6569 329 33 327.657 33 326V309C33 307.343 34.3431 306 36 306H87C88.6569 306 90 307.343 90 309V400.981C90 402.638 88.6574 403.981 87.0009 403.981L26.0009 403.999C24.3437 404 23 402.656 23 400.999Z" stroke="#999CA2" stroke-opacity="0.25" stroke-width="2"/>
<mask id="mask1_2_137" style="mask-type:alpha" maskUnits="userSpaceOnUse" x="24" y="307" width="65" height="96">
<path d="M24 400.999V332C24 330.895 24.8954 330 26 330H30C32.2091 330 34 328.209 34 326V309C34 307.895 34.8954 307 36 307H87C88.1046 307 89 307.895 89 309V400.981C89 402.085 88.1049 402.981 87.0006 402.981L26.0006 402.999C24.8958 403 24 402.104 24 400.999Z" fill="#C4C4C4"/>
</mask>
<g mask="url(#mask1_2_137)">
<path d="M142.549 344.069L53.8838 432.666L55.6841 434.465L144.349 345.868L142.549 344.069Z" fill="#999CA2" fill-opacity="0.15"/>
<path d="M138.949 340.472L50.2842 429.069L52.0845 430.868L140.75 342.271L138.949 340.472Z" fill="#999CA2" fill-opacity="0.15"/>
<path d="M135.348 336.873L46.6831 425.47L48.4834 427.269L137.149 338.672L135.348 336.873Z" fill="#999CA2" fill-opacity="0.15"/>
<path d="M131.748 333.276L43.0825 421.873L44.8828 423.672L133.548 335.075L131.748 333.276Z" fill="#999CA2" fill-opacity="0.15"/>
<path d="M128.147 329.678L39.4819 418.275L41.2822 420.074L129.948 331.477L128.147 329.678Z" fill="#999CA2" fill-opacity="0.15"/>
<path d="M124.547 326.08L35.8813 414.677L37.6817 416.476L126.347 327.879L124.547 326.08Z" fill="#999CA2" fill-opacity="0.15"/>
<path d="M120.946 322.482L32.2808 411.079L34.0811 412.878L122.746 324.281L120.946 322.482Z" fill="#999CA2" fill-opacity="0.15"/>
<path d="M117.345 318.884L28.6802 407.481L30.4805 409.28L119.146 320.683L117.345 318.884Z" fill="#999CA2" fill-opacity="0.15"/>
<path d="M113.745 315.287L25.0796 403.884L26.8799 405.683L115.545 317.086L113.745 315.287Z" fill="#999CA2" fill-opacity="0.15"/>
<path d="M110.144 311.689L21.479 400.286L23.2793 402.085L111.945 313.488L110.144 311.689Z" fill="#999CA2" fill-opacity="0.15"/>
<path d="M106.543 308.091L17.8779 396.688L19.6782 398.487L108.344 309.89L106.543 308.091Z" fill="#999CA2" fill-opacity="0.15"/>
<path d="M102.943 304.493L14.2778 393.09L16.0781 394.889L104.743 306.292L102.943 304.493Z" fill="#999CA2" fill-opacity="0.15"/>
<path d="M99.342 300.895L10.6768 389.492L12.4771 391.291L101.142 302.694L99.342 300.895Z" fill="#999CA2" fill-opacity="0.15"/>
<path d="M95.7415 297.297L7.07617 385.894L8.87648 387.693L97.5418 299.096L95.7415 297.297Z" fill="#999CA2" fill-opacity="0.15"/>
<path d="M92.1414 293.7L3.47607 382.297L5.27638 384.096L93.9417 295.499L92.1414 293.7Z" fill="#999CA2" fill-opacity="0.15"/>
<path d="M88.5403 290.101L-0.125 378.698L1.67531 380.497L90.3406 291.9L88.5403 290.101Z" fill="#999CA2" fill-opacity="0.15"/>
<path d="M84.9402 286.504L-3.7251 375.101L-1.92479 376.9L86.7405 288.303L84.9402 286.504Z" fill="#999CA2" fill-opacity="0.15"/>
<path d="M81.3391 282.906L-7.32617 371.503L-5.52587 373.302L83.1394 284.705L81.3391 282.906Z" fill="#999CA2" fill-opacity="0.15"/>
<path d="M77.739 279.309L-10.9263 367.906L-9.12597 369.705L79.5393 281.108L77.739 279.309Z" fill="#999CA2" fill-opacity="0.15"/>
<path d="M74.1384 275.71L-14.5269 364.307L-12.7265 366.106L75.9387 277.509L74.1384 275.71Z" fill="#999CA2" fill-opacity="0.15"/>
<path d="M70.5369 272.113L-18.1284 360.71L-16.3281 362.509L72.3372 273.912L70.5369 272.113Z" fill="#999CA2" fill-opacity="0.15"/>
</g>
<path d="M54.0326 364H51.3962L55.4133 352.364H58.5837L62.5951 364H59.9587L57.0439 355.023H56.953L54.0326 364ZM53.8678 359.426H60.0951V361.347H53.8678V359.426Z" fill="#E3E5EA"/>
<path d="M582 384.999V333C582 331.343 583.343 330 585 330H621C622.657 330 624 328.657 624 327V317.252C624 316.008 625.008 315 626.252 315C627.028 315 627.75 314.6 628.161 313.942L641.619 292.41C642.167 291.533 643.128 291 644.163 291H664C665.657 291 667 292.343 667 294V298C667 299.657 668.343 301 670 301H675C676.657 301 678 302.343 678 304V353C678 354.657 676.657 356 675 356H659C657.343 356 656 357.343 656 359V384.981C656 386.638 654.657 387.981 653.001 387.981L585.001 387.999C583.344 388 582 386.656 582 384.999Z" stroke="#999CA2" stroke-opacity="0.25" stroke-width="2"/>
<mask id="mask2_2_137" style="mask-type:alpha" maskUnits="userSpaceOnUse" x="583" y="292" width="94" height="95">
<path d="M583 384.999V333C583 331.895 583.895 331 585 331H621C623.209 331 625 329.209 625 327V317.423C625 316.637 625.637 316 626.423 316C627.404 316 628.316 315.495 628.836 314.663L642.412 292.94C642.778 292.355 643.419 292 644.108 292H664C665.105 292 666 292.895 666 294V298C666 300.209 667.791 302 670 302H675C676.105 302 677 302.895 677 304V353C677 354.105 676.105 355 675 355H659C656.791 355 655 356.791 655 359V384.981C655 386.085 654.105 386.981 653.001 386.981L585.001 386.999C583.896 387 583 386.104 583 384.999Z" fill="#C4C4C4"/>
</mask>
<g mask="url(#mask2_2_137)">
<path d="M721.184 319.865L603.257 434.957L605.028 436.782L722.955 321.69L721.184 319.865Z" fill="#999CA2" fill-opacity="0.15"/>
<path d="M717.697 316.252L599.72 431.303L601.49 433.129L719.467 318.078L717.697 316.252Z" fill="#999CA2" fill-opacity="0.15"/>
<path d="M714.161 312.602L596.18 427.65L597.95 429.476L715.931 314.429L714.161 312.602Z" fill="#999CA2" fill-opacity="0.15"/>
<path d="M710.621 308.95L592.64 423.998L594.41 425.824L712.391 310.777L710.621 308.95Z" fill="#999CA2" fill-opacity="0.15"/>
<path d="M707.087 305.3L589.101 420.344L590.871 422.17L708.857 307.127L707.087 305.3Z" fill="#999CA2" fill-opacity="0.15"/>
<path d="M703.547 301.647L585.561 416.691L587.331 418.517L705.317 303.474L703.547 301.647Z" fill="#999CA2" fill-opacity="0.15"/>
<path d="M700.007 297.994L582.021 413.038L583.791 414.864L701.777 299.821L700.007 297.994Z" fill="#999CA2" fill-opacity="0.15"/>
<path d="M696.467 294.342L578.481 409.386L580.251 411.212L698.237 296.169L696.467 294.342Z" fill="#999CA2" fill-opacity="0.15"/>
<path d="M692.928 290.69L574.942 405.734L576.712 407.56L694.698 292.517L692.928 290.69Z" fill="#999CA2" fill-opacity="0.15"/>
<path d="M689.388 287.037L571.402 402.081L573.172 403.907L691.158 288.864L689.388 287.037Z" fill="#999CA2" fill-opacity="0.15"/>
<path d="M685.848 283.383L567.862 398.427L569.632 400.253L687.618 285.21L685.848 283.383Z" fill="#999CA2" fill-opacity="0.15"/>
<path d="M682.309 279.731L564.323 394.775L566.093 396.601L684.079 281.558L682.309 279.731Z" fill="#999CA2" fill-opacity="0.15"/>
<path d="M678.769 276.078L560.783 391.122L562.553 392.948L680.539 277.905L678.769 276.078Z" fill="#999CA2" fill-opacity="0.15"/>
<path d="M675.229 272.425L557.243 387.469L559.013 389.295L676.999 274.252L675.229 272.425Z" fill="#999CA2" fill-opacity="0.15"/>
<path d="M671.69 268.773L553.704 383.816L555.474 385.642L673.46 270.599L671.69 268.773Z" fill="#999CA2" fill-opacity="0.15"/>
<path d="M668.15 265.119L550.164 380.163L551.934 381.989L669.92 266.946L668.15 265.119Z" fill="#999CA2" fill-opacity="0.15"/>
<path d="M664.612 261.466L546.625 376.51L548.395 378.336L666.381 263.293L664.612 261.466Z" fill="#999CA2" fill-opacity="0.15"/>
<path d="M661.071 257.814L543.084 372.858L544.854 374.684L662.84 259.641L661.071 257.814Z" fill="#999CA2" fill-opacity="0.15"/>
<path d="M657.531 254.161L539.545 369.205L541.315 371.031L659.301 255.988L657.531 254.161Z" fill="#999CA2" fill-opacity="0.15"/>
<path d="M653.992 250.508L536.006 365.552L537.776 367.378L655.762 252.335L653.992 250.508Z" fill="#999CA2" fill-opacity="0.15"/>
<path d="M650.45 246.856L532.464 361.9L534.234 363.726L652.22 248.683L650.45 246.856Z" fill="#999CA2" fill-opacity="0.15"/>
</g>
<path d="M619.722 360H624.694C627.308 360 628.7 358.636 628.7 356.784C628.7 355.063 627.467 354.023 626.143 353.96V353.847C627.353 353.574 628.245 352.716 628.245 351.347C628.245 349.602 626.95 348.364 624.381 348.364H619.722V360ZM622.183 357.989V354.898H624.245C625.427 354.898 626.16 355.58 626.16 356.54C626.16 357.415 625.563 357.989 624.188 357.989H622.183ZM622.183 353.233V350.352H624.052C625.143 350.352 625.762 350.915 625.762 351.756C625.762 352.676 625.012 353.233 624.006 353.233H622.183Z" fill="#E3E5EA"/>
<path d="M330.478 132L331.126 130.01H334.275L334.923 132H336.9L333.891 123.273H331.513L328.501 132H330.478ZM331.594 128.57L332.668 125.267H332.737L333.81 128.57H331.594ZM340.88 125.455H339.648V123.886H337.833V125.455H336.938V126.818H337.833V130.227C337.824 131.51 338.698 132.145 340.015 132.089C340.483 132.072 340.816 131.979 340.999 131.919L340.713 130.568C340.624 130.585 340.432 130.628 340.262 130.628C339.899 130.628 339.648 130.491 339.648 129.989V126.818H340.88V125.455ZM345.436 125.455H344.204V123.886H342.389V125.455H341.494V126.818H342.389V130.227C342.38 131.51 343.254 132.145 344.571 132.089C345.039 132.072 345.372 131.979 345.555 131.919L345.269 130.568C345.18 130.585 344.988 130.628 344.818 130.628C344.456 130.628 344.204 130.491 344.204 129.989V126.818H345.436V125.455ZM348.377 132.124C349.344 132.124 349.97 131.702 350.29 131.092H350.341V132H352.063V127.585C352.063 126.026 350.742 125.369 349.284 125.369C347.716 125.369 346.685 126.119 346.433 127.312L348.112 127.449C348.236 127.014 348.624 126.695 349.276 126.695C349.894 126.695 350.247 127.006 350.247 127.543V127.568C350.247 127.99 349.8 128.045 348.662 128.156C347.367 128.276 346.203 128.71 346.203 130.172C346.203 131.467 347.128 132.124 348.377 132.124ZM348.897 130.871C348.338 130.871 347.938 130.611 347.938 130.112C347.938 129.601 348.36 129.349 348.999 129.26C349.395 129.205 350.043 129.111 350.26 128.966V129.661C350.26 130.347 349.693 130.871 348.897 130.871ZM356.32 132.128C358.063 132.128 359.159 131.105 359.244 129.601H357.531C357.424 130.3 356.964 130.692 356.342 130.692C355.494 130.692 354.944 129.98 354.944 128.727C354.944 127.491 355.498 126.784 356.342 126.784C357.007 126.784 357.433 127.223 357.531 127.875H359.244C359.167 126.362 358.021 125.369 356.312 125.369C354.326 125.369 353.099 126.746 353.099 128.753C353.099 130.743 354.305 132.128 356.32 132.128ZM360.298 132H362.113V129.92L362.603 129.362L364.389 132H366.515L363.963 128.288L366.392 125.455H364.308L362.211 127.939H362.113V123.273H360.298V132ZM369.888 132.128C371.507 132.128 372.598 131.339 372.854 130.125L371.175 130.014C370.992 130.513 370.523 130.773 369.918 130.773C369.01 130.773 368.435 130.172 368.435 129.196V129.192H372.892V128.693C372.892 126.469 371.546 125.369 369.815 125.369C367.889 125.369 366.641 126.737 366.641 128.757C366.641 130.832 367.872 132.128 369.888 132.128ZM368.435 128.067C368.473 127.321 369.04 126.724 369.845 126.724C370.634 126.724 371.179 127.287 371.183 128.067H368.435ZM373.969 132H375.784V128.297C375.784 127.491 376.372 126.938 377.173 126.938C377.425 126.938 377.77 126.98 377.94 127.036V125.425C377.778 125.386 377.553 125.361 377.369 125.361C376.636 125.361 376.036 125.787 375.797 126.597H375.729V125.455H373.969V132ZM384.217 127.321C384.055 126.115 383.083 125.369 381.43 125.369C379.755 125.369 378.652 126.145 378.656 127.406C378.652 128.386 379.27 129.021 380.548 129.277L381.681 129.503C382.252 129.618 382.512 129.827 382.521 130.155C382.512 130.543 382.091 130.82 381.456 130.82C380.808 130.82 380.377 130.543 380.267 130.01L378.481 130.104C378.652 131.357 379.717 132.128 381.451 132.128C383.147 132.128 384.362 131.263 384.366 129.972C384.362 129.026 383.744 128.459 382.474 128.199L381.289 127.96C380.68 127.828 380.454 127.619 380.458 127.304C380.454 126.912 380.897 126.656 381.46 126.656C382.091 126.656 382.466 127.001 382.555 127.423L384.217 127.321Z" fill="#30D9D4"/>
<path d="M330.478 642L331.126 640.01H334.275L334.923 642H336.9L333.891 633.273H331.513L328.501 642H330.478ZM331.594 638.57L332.668 635.267H332.737L333.81 638.57H331.594ZM340.88 635.455H339.648V633.886H337.833V635.455H336.938V636.818H337.833V640.227C337.824 641.51 338.698 642.145 340.015 642.089C340.483 642.072 340.816 641.979 340.999 641.919L340.713 640.568C340.624 640.585 340.432 640.628 340.262 640.628C339.899 640.628 339.648 640.491 339.648 639.989V636.818H340.88V635.455ZM345.436 635.455H344.204V633.886H342.389V635.455H341.494V636.818H342.389V640.227C342.38 641.51 343.254 642.145 344.571 642.089C345.039 642.072 345.372 641.979 345.555 641.919L345.269 640.568C345.18 640.585 344.988 640.628 344.818 640.628C344.456 640.628 344.204 640.491 344.204 639.989V636.818H345.436V635.455ZM348.377 642.124C349.344 642.124 349.97 641.702 350.29 641.092H350.341V642H352.063V637.585C352.063 636.026 350.742 635.369 349.284 635.369C347.716 635.369 346.685 636.119 346.433 637.312L348.112 637.449C348.236 637.014 348.624 636.695 349.276 636.695C349.894 636.695 350.247 637.006 350.247 637.543V637.568C350.247 637.99 349.8 638.045 348.662 638.156C347.367 638.276 346.203 638.71 346.203 640.172C346.203 641.467 347.128 642.124 348.377 642.124ZM348.897 640.871C348.338 640.871 347.938 640.611 347.938 640.112C347.938 639.601 348.36 639.349 348.999 639.26C349.395 639.205 350.043 639.111 350.26 638.966V639.661C350.26 640.347 349.693 640.871 348.897 640.871ZM356.32 642.128C358.063 642.128 359.159 641.105 359.244 639.601H357.531C357.424 640.3 356.964 640.692 356.342 640.692C355.494 640.692 354.944 639.98 354.944 638.727C354.944 637.491 355.498 636.784 356.342 636.784C357.007 636.784 357.433 637.223 357.531 637.875H359.244C359.167 636.362 358.021 635.369 356.312 635.369C354.326 635.369 353.099 636.746 353.099 638.753C353.099 640.743 354.305 642.128 356.32 642.128ZM360.298 642H362.113V639.92L362.603 639.362L364.389 642H366.515L363.963 638.288L366.392 635.455H364.308L362.211 637.939H362.113V633.273H360.298V642ZM369.888 642.128C371.507 642.128 372.598 641.339 372.854 640.125L371.175 640.014C370.992 640.513 370.523 640.773 369.918 640.773C369.01 640.773 368.435 640.172 368.435 639.196V639.192H372.892V638.693C372.892 636.469 371.546 635.369 369.815 635.369C367.889 635.369 366.641 636.737 366.641 638.757C366.641 640.832 367.872 642.128 369.888 642.128ZM368.435 638.067C368.473 637.321 369.04 636.724 369.845 636.724C370.634 636.724 371.179 637.287 371.183 638.067H368.435ZM373.969 642H375.784V638.297C375.784 637.491 376.372 636.938 377.173 636.938C377.425 636.938 377.77 636.98 377.94 637.036V635.425C377.778 635.386 377.553 635.361 377.369 635.361C376.636 635.361 376.036 635.787 375.797 636.597H375.729V635.455H373.969V642ZM384.217 637.321C384.055 636.115 383.083 635.369 381.43 635.369C379.755 635.369 378.652 636.145 378.656 637.406C378.652 638.386 379.27 639.021 380.548 639.277L381.681 639.503C382.252 639.618 382.512 639.827 382.521 640.155C382.512 640.543 382.091 640.82 381.456 640.82C380.808 640.82 380.377 640.543 380.267 640.01L378.481 640.104C378.652 641.357 379.717 642.128 381.451 642.128C383.147 642.128 384.362 641.263 384.366 639.972C384.362 639.026 383.744 638.459 382.474 638.199L381.289 637.96C380.68 637.828 380.454 637.619 380.458 637.304C380.454 636.912 380.897 636.656 381.46 636.656C382.091 636.656 382.466 637.001 382.555 637.423L384.217 637.321Z" fill="#30D9D4"/>
<path d="M330.093 366C332.752 366 334.363 364.355 334.363 361.628C334.363 358.909 332.752 357.273 330.118 357.273H326.999V366H330.093ZM328.844 364.419V358.854H330.02C331.657 358.854 332.522 359.689 332.522 361.628C332.522 363.575 331.657 364.419 330.016 364.419H328.844ZM338.57 366.128C340.19 366.128 341.281 365.339 341.536 364.125L339.857 364.014C339.674 364.513 339.205 364.773 338.6 364.773C337.693 364.773 337.117 364.172 337.117 363.196V363.192H341.575V362.693C341.575 360.469 340.228 359.369 338.498 359.369C336.572 359.369 335.323 360.737 335.323 362.757C335.323 364.832 336.555 366.128 338.57 366.128ZM337.117 362.067C337.156 361.321 337.722 360.724 338.528 360.724C339.316 360.724 339.862 361.287 339.866 362.067H337.117ZM346.171 359.455H344.872V359.016C344.872 358.572 345.051 358.312 345.583 358.312C345.801 358.312 346.022 358.359 346.167 358.406L346.487 357.043C346.261 356.974 345.762 356.864 345.204 356.864C343.972 356.864 343.056 357.558 343.056 358.982V359.455H342.131V360.818H343.056V366H344.872V360.818H346.171V359.455ZM349.921 366.128C351.54 366.128 352.631 365.339 352.887 364.125L351.208 364.014C351.025 364.513 350.556 364.773 349.951 364.773C349.043 364.773 348.468 364.172 348.468 363.196V363.192H352.925V362.693C352.925 360.469 351.579 359.369 349.848 359.369C347.922 359.369 346.674 360.737 346.674 362.757C346.674 364.832 347.905 366.128 349.921 366.128ZM348.468 362.067C348.506 361.321 349.073 360.724 349.878 360.724C350.667 360.724 351.212 361.287 351.216 362.067H348.468ZM355.817 362.216C355.821 361.372 356.324 360.878 357.057 360.878C357.786 360.878 358.225 361.355 358.221 362.156V366H360.036V361.832C360.036 360.307 359.141 359.369 357.777 359.369C356.806 359.369 356.103 359.847 355.809 360.609H355.732V359.455H354.002V366H355.817V362.216ZM363.771 366.107C364.827 366.107 365.377 365.497 365.629 364.952H365.705V366H367.495V357.273H365.684V360.554H365.629C365.386 360.021 364.861 359.369 363.766 359.369C362.33 359.369 361.116 360.486 361.116 362.736C361.116 364.926 362.279 366.107 363.771 366.107ZM364.346 364.662C363.455 364.662 362.969 363.869 362.969 362.727C362.969 361.594 363.447 360.814 364.346 360.814C365.228 360.814 365.722 361.56 365.722 362.727C365.722 363.895 365.219 364.662 364.346 364.662ZM371.862 366.128C373.482 366.128 374.573 365.339 374.828 364.125L373.149 364.014C372.966 364.513 372.497 364.773 371.892 364.773C370.985 364.773 370.409 364.172 370.409 363.196V363.192H374.867V362.693C374.867 360.469 373.52 359.369 371.79 359.369C369.864 359.369 368.615 360.737 368.615 362.757C368.615 364.832 369.847 366.128 371.862 366.128ZM370.409 362.067C370.448 361.321 371.014 360.724 371.82 360.724C372.608 360.724 373.154 361.287 373.158 362.067H370.409ZM375.943 366H377.759V362.297C377.759 361.491 378.347 360.938 379.148 360.938C379.399 360.938 379.745 360.98 379.915 361.036V359.425C379.753 359.386 379.527 359.361 379.344 359.361C378.611 359.361 378.01 359.787 377.772 360.597H377.703V359.455H375.943V366ZM386.192 361.321C386.03 360.115 385.058 359.369 383.405 359.369C381.73 359.369 380.626 360.145 380.631 361.406C380.626 362.386 381.244 363.021 382.523 363.277L383.656 363.503C384.227 363.618 384.487 363.827 384.496 364.155C384.487 364.543 384.065 364.82 383.43 364.82C382.782 364.82 382.352 364.543 382.241 364.01L380.456 364.104C380.626 365.357 381.692 366.128 383.426 366.128C385.122 366.128 386.336 365.263 386.341 363.972C386.336 363.026 385.719 362.459 384.449 362.199L383.264 361.96C382.655 361.828 382.429 361.619 382.433 361.304C382.429 360.912 382.872 360.656 383.434 360.656C384.065 360.656 384.44 361.001 384.53 361.423L386.192 361.321Z" fill="#E44C4D"/>
<path d="M486.898 145H489.694C491.165 145 491.948 144.233 491.948 143.191C491.948 142.223 491.254 141.638 490.509 141.603V141.539C491.19 141.385 491.692 140.903 491.692 140.132C491.692 139.151 490.963 138.455 489.519 138.455H486.898V145ZM488.282 143.869V142.13H489.442C490.107 142.13 490.519 142.513 490.519 143.054C490.519 143.546 490.183 143.869 489.41 143.869H488.282ZM488.282 141.194V139.573H489.333C489.947 139.573 490.295 139.89 490.295 140.363C490.295 140.88 489.873 141.194 489.308 141.194H488.282ZM494.52 139.596H496.524V145H497.892V139.596H499.895V138.455H494.52V139.596ZM500.164 145H501.526V142.223C501.526 141.619 501.967 141.203 502.568 141.203C502.756 141.203 503.015 141.235 503.143 141.277V140.069C503.022 140.04 502.852 140.021 502.715 140.021C502.165 140.021 501.715 140.34 501.536 140.947H501.484V140.091H500.164V145ZM505.775 145.096C506.989 145.096 507.807 144.505 507.999 143.594L506.74 143.511C506.603 143.885 506.251 144.08 505.797 144.08C505.116 144.08 504.685 143.629 504.685 142.897V142.894H508.028V142.52C508.028 140.852 507.018 140.027 505.72 140.027C504.276 140.027 503.339 141.053 503.339 142.568C503.339 144.124 504.263 145.096 505.775 145.096ZM504.685 142.05C504.714 141.491 505.139 141.043 505.743 141.043C506.334 141.043 506.743 141.465 506.746 142.05H504.685ZM511.073 145.096C512.287 145.096 513.105 144.505 513.297 143.594L512.038 143.511C511.9 143.885 511.549 144.08 511.095 144.08C510.414 144.08 509.983 143.629 509.983 142.897V142.894H513.326V142.52C513.326 140.852 512.316 140.027 511.018 140.027C509.574 140.027 508.637 141.053 508.637 142.568C508.637 144.124 509.561 145.096 511.073 145.096ZM509.983 142.05C510.012 141.491 510.437 141.043 511.041 141.043C511.632 141.043 512.041 141.465 512.044 142.05H509.983Z" fill="#7F838B"/>
<path d="M509.85 235H512.647C514.117 235 514.9 234.233 514.9 233.191C514.9 232.223 514.207 231.638 513.462 231.603V231.539C514.143 231.385 514.644 230.903 514.644 230.132C514.644 229.151 513.916 228.455 512.471 228.455H509.85V235ZM511.234 233.869V232.13H512.394C513.059 232.13 513.472 232.513 513.472 233.054C513.472 233.546 513.136 233.869 512.363 233.869H511.234ZM511.234 231.194V229.573H512.286C512.899 229.573 513.248 229.89 513.248 230.363C513.248 230.88 512.826 231.194 512.26 231.194H511.234ZM517.472 229.596H519.476V235H520.844V229.596H522.848V228.455H517.472V229.596ZM526.107 232.91C526.11 233.568 525.659 233.913 525.17 233.913C524.656 233.913 524.324 233.552 524.32 232.974V230.091H522.959V233.217C522.962 234.364 523.633 235.064 524.621 235.064C525.359 235.064 525.89 234.684 526.11 234.108H526.161V235H527.468V230.091H526.107V232.91ZM529.838 232.162C529.841 231.529 530.218 231.158 530.768 231.158C531.315 231.158 531.644 231.516 531.641 232.117V235H533.002V231.874C533.002 230.73 532.331 230.027 531.308 230.027C530.579 230.027 530.052 230.385 529.832 230.957H529.774V230.091H528.476V235H529.838V232.162ZM535.356 232.162C535.359 231.529 535.736 231.158 536.286 231.158C536.832 231.158 537.161 231.516 537.158 232.117V235H538.52V231.874C538.52 230.73 537.848 230.027 536.826 230.027C536.097 230.027 535.57 230.385 535.349 230.957H535.292V230.091H533.994V235H535.356V232.162ZM541.749 235.096C542.963 235.096 543.782 234.505 543.973 233.594L542.714 233.511C542.577 233.885 542.225 234.08 541.771 234.08C541.091 234.08 540.659 233.629 540.659 232.897V232.894H544.002V232.52C544.002 230.852 542.992 230.027 541.695 230.027C540.25 230.027 539.314 231.053 539.314 232.568C539.314 234.124 540.237 235.096 541.749 235.096ZM540.659 232.05C540.688 231.491 541.113 231.043 541.717 231.043C542.308 231.043 542.717 231.465 542.721 232.05H540.659ZM546.171 228.455H544.81V235H546.171V228.455Z" fill="#7F838B"/>
<path d="M592.001 227H594.798C596.268 227 597.051 226.233 597.051 225.191C597.051 224.223 596.358 223.638 595.613 223.603V223.539C596.294 223.385 596.795 222.903 596.795 222.132C596.795 221.151 596.067 220.455 594.622 220.455H592.001V227ZM593.385 225.869V224.13H594.545C595.21 224.13 595.622 224.513 595.622 225.054C595.622 225.546 595.287 225.869 594.513 225.869H593.385ZM593.385 223.194V221.573H594.437C595.05 221.573 595.399 221.89 595.399 222.363C595.399 222.88 594.977 223.194 594.411 223.194H593.385ZM599.873 220.455V227H601.215V222.724H601.269L602.963 226.968H603.877L605.571 222.74H605.625V227H606.968V220.455H605.261L603.459 224.852H603.382L601.579 220.455H599.873ZM609.401 227.093C610.127 227.093 610.597 226.776 610.836 226.319H610.875V227H612.166V223.689C612.166 222.519 611.175 222.027 610.082 222.027C608.906 222.027 608.132 222.589 607.944 223.484L609.203 223.587C609.296 223.261 609.587 223.021 610.076 223.021C610.539 223.021 610.804 223.254 610.804 223.657V223.676C610.804 223.993 610.469 224.034 609.615 224.117C608.644 224.207 607.771 224.533 607.771 225.629C607.771 226.6 608.465 227.093 609.401 227.093ZM609.791 226.153C609.372 226.153 609.072 225.958 609.072 225.584C609.072 225.201 609.388 225.012 609.868 224.945C610.165 224.903 610.651 224.833 610.814 224.724V225.245C610.814 225.76 610.389 226.153 609.791 226.153ZM613.141 227H614.503V222.091H613.141V227ZM613.825 221.458C614.231 221.458 614.563 221.148 614.563 220.768C614.563 220.391 614.231 220.081 613.825 220.081C613.422 220.081 613.09 220.391 613.09 220.768C613.09 221.148 613.422 221.458 613.825 221.458ZM616.874 224.162C616.877 223.529 617.254 223.158 617.804 223.158C618.35 223.158 618.679 223.516 618.676 224.117V227H620.038V223.874C620.038 222.73 619.367 222.027 618.344 222.027C617.615 222.027 617.088 222.385 616.867 222.957H616.81V222.091H615.512V227H616.874V224.162Z" fill="#7F838B"/>
<path d="M638.668 334H641.464C642.935 334 643.718 333.233 643.718 332.191C643.718 331.223 643.024 330.638 642.279 330.603V330.539C642.96 330.385 643.462 329.903 643.462 329.132C643.462 328.151 642.733 327.455 641.289 327.455H638.668V334ZM640.052 332.869V331.13H641.212C641.877 331.13 642.289 331.513 642.289 332.054C642.289 332.546 641.953 332.869 641.18 332.869H640.052ZM640.052 330.194V328.573H641.103C641.717 328.573 642.065 328.89 642.065 329.363C642.065 329.88 641.643 330.194 641.078 330.194H640.052ZM650.09 329.337H651.416C651.397 328.17 650.438 327.365 648.981 327.365C647.546 327.365 646.494 328.158 646.501 329.347C646.498 330.312 647.178 330.865 648.284 331.13L648.997 331.309C649.71 331.482 650.106 331.686 650.109 332.127C650.106 332.607 649.652 332.933 648.949 332.933C648.23 332.933 647.712 332.6 647.667 331.945H646.328C646.363 333.361 647.376 334.093 648.965 334.093C650.563 334.093 651.503 333.329 651.506 332.13C651.503 331.04 650.681 330.462 649.543 330.206L648.955 330.066C648.386 329.935 647.91 329.724 647.92 329.254C647.92 328.832 648.294 328.522 648.971 328.522C649.633 328.522 650.039 328.822 650.09 329.337ZM652.33 334H653.691V329.091H652.33V334ZM653.014 328.458C653.42 328.458 653.752 328.148 653.752 327.768C653.752 327.391 653.42 327.081 653.014 327.081C652.611 327.081 652.279 327.391 652.279 327.768C652.279 328.148 652.611 328.458 653.014 328.458ZM657.312 329.091H656.389V327.915H655.027V329.091H654.356V330.114H655.027V332.67C655.021 333.632 655.676 334.109 656.663 334.067C657.015 334.054 657.264 333.984 657.402 333.939L657.188 332.926C657.121 332.939 656.977 332.971 656.849 332.971C656.577 332.971 656.389 332.869 656.389 332.491V330.114H657.312V329.091ZM660.303 334.096C661.517 334.096 662.335 333.505 662.527 332.594L661.268 332.511C661.13 332.885 660.779 333.08 660.325 333.08C659.644 333.08 659.213 332.629 659.213 331.897V331.894H662.556V331.52C662.556 329.852 661.546 329.027 660.248 329.027C658.804 329.027 657.867 330.053 657.867 331.568C657.867 333.124 658.791 334.096 660.303 334.096ZM659.213 331.05C659.242 330.491 659.667 330.043 660.271 330.043C660.862 330.043 661.271 330.465 661.274 331.05H659.213Z" fill="#7F838B"/>
<path d="M619.65 408H622.447C623.917 408 624.7 407.233 624.7 406.191C624.7 405.223 624.006 404.638 623.262 404.603V404.539C623.943 404.385 624.444 403.903 624.444 403.132C624.444 402.151 623.716 401.455 622.271 401.455H619.65V408ZM621.034 406.869V405.13H622.194C622.859 405.13 623.271 405.513 623.271 406.054C623.271 406.546 622.936 406.869 622.162 406.869H621.034ZM621.034 404.194V402.573H622.086C622.699 402.573 623.048 402.89 623.048 403.363C623.048 403.88 622.626 404.194 622.06 404.194H621.034ZM627.272 402.596H629.276V408H630.644V402.596H632.648V401.455H627.272V402.596ZM634.933 408.096C636.422 408.096 637.349 407.076 637.349 405.565C637.349 404.043 636.422 403.027 634.933 403.027C633.443 403.027 632.517 404.043 632.517 405.565C632.517 407.076 633.443 408.096 634.933 408.096ZM634.939 407.041C634.252 407.041 633.9 406.412 633.9 405.555C633.9 404.699 634.252 404.066 634.939 404.066C635.614 404.066 635.965 404.699 635.965 405.555C635.965 406.412 635.614 407.041 634.939 407.041ZM638.999 408H640.437L641.281 404.913H641.341L642.185 408H643.626L644.959 403.091H643.585L642.837 406.37H642.795L641.99 403.091H640.638L639.846 406.389H639.801L639.04 403.091H637.663L638.999 408ZM647.719 408.096C648.933 408.096 649.751 407.505 649.943 406.594L648.684 406.511C648.546 406.885 648.195 407.08 647.741 407.08C647.06 407.08 646.629 406.629 646.629 405.897V405.894H649.972V405.52C649.972 403.852 648.962 403.027 647.664 403.027C646.22 403.027 645.283 404.053 645.283 405.568C645.283 407.124 646.207 408.096 647.719 408.096ZM646.629 405.05C646.658 404.491 647.083 404.043 647.687 404.043C648.278 404.043 648.687 404.465 648.69 405.05H646.629ZM650.779 408H652.141V405.223C652.141 404.619 652.582 404.203 653.183 404.203C653.371 404.203 653.63 404.235 653.758 404.277V403.069C653.637 403.04 653.467 403.021 653.33 403.021C652.78 403.021 652.329 403.34 652.15 403.947H652.099V403.091H650.779V408Z" fill="#7F838B"/>
<path d="M467.651 351H470.447C471.917 351 472.7 350.233 472.7 349.191C472.7 348.223 472.007 347.638 471.262 347.603V347.539C471.943 347.385 472.445 346.903 472.445 346.132C472.445 345.151 471.716 344.455 470.271 344.455H467.651V351ZM469.035 349.869V348.13H470.195C470.859 348.13 471.272 348.513 471.272 349.054C471.272 349.546 470.936 349.869 470.163 349.869H469.035ZM469.035 347.194V345.573H470.086C470.7 345.573 471.048 345.89 471.048 346.363C471.048 346.88 470.626 347.194 470.06 347.194H469.035ZM479.862 346.57H481.268C481.089 345.276 479.948 344.365 478.469 344.365C476.74 344.365 475.407 345.612 475.407 347.734C475.407 349.805 476.653 351.089 478.497 351.089C480.15 351.089 481.329 350.044 481.329 348.322V347.497H478.59V348.539H479.996C479.977 349.351 479.424 349.865 478.504 349.865C477.465 349.865 476.81 349.089 476.81 347.721C476.81 346.359 477.491 345.589 478.491 345.589C479.204 345.589 479.686 345.957 479.862 346.57ZM484.499 351.096C485.714 351.096 486.532 350.505 486.724 349.594L485.464 349.511C485.327 349.885 484.975 350.08 484.522 350.08C483.841 350.08 483.409 349.629 483.409 348.897V348.894H486.752V348.52C486.752 346.852 485.742 346.027 484.445 346.027C483 346.027 482.064 347.053 482.064 348.568C482.064 350.124 482.987 351.096 484.499 351.096ZM483.409 348.05C483.438 347.491 483.863 347.043 484.467 347.043C485.058 347.043 485.468 347.465 485.471 348.05H483.409ZM488.921 348.162C488.925 347.529 489.302 347.158 489.851 347.158C490.398 347.158 490.727 347.516 490.724 348.117V351H492.085V347.874C492.085 346.73 491.414 346.027 490.392 346.027C489.663 346.027 489.136 346.385 488.915 346.957H488.857V346.091H487.56V351H488.921V348.162ZM495.315 351.096C496.529 351.096 497.347 350.505 497.539 349.594L496.28 349.511C496.142 349.885 495.791 350.08 495.337 350.08C494.656 350.08 494.225 349.629 494.225 348.897V348.894H497.568V348.52C497.568 346.852 496.558 346.027 495.26 346.027C493.816 346.027 492.879 347.053 492.879 348.568C492.879 350.124 493.803 351.096 495.315 351.096ZM494.225 348.05C494.254 347.491 494.679 347.043 495.283 347.043C495.874 347.043 496.283 347.465 496.286 348.05H494.225ZM498.375 351H499.737V348.223C499.737 347.619 500.178 347.203 500.779 347.203C500.967 347.203 501.226 347.235 501.354 347.277V346.069C501.233 346.04 501.063 346.021 500.926 346.021C500.376 346.021 499.925 346.34 499.747 346.947H499.695V346.091H498.375V351ZM503.236 351.093C503.962 351.093 504.432 350.776 504.671 350.319H504.71V351H506.001V347.689C506.001 346.519 505.01 346.027 503.917 346.027C502.741 346.027 501.967 346.589 501.779 347.484L503.038 347.587C503.131 347.261 503.422 347.021 503.911 347.021C504.374 347.021 504.639 347.254 504.639 347.657V347.676C504.639 347.993 504.304 348.034 503.45 348.117C502.479 348.207 501.606 348.533 501.606 349.629C501.606 350.6 502.3 351.093 503.236 351.093ZM503.626 350.153C503.207 350.153 502.907 349.958 502.907 349.584C502.907 349.201 503.223 349.012 503.703 348.945C504 348.903 504.486 348.833 504.649 348.724V349.245C504.649 349.76 504.224 350.153 503.626 350.153ZM509.587 346.091H508.664V344.915H507.302V346.091H506.631V347.114H507.302V349.67C507.296 350.632 507.951 351.109 508.938 351.067C509.29 351.054 509.539 350.984 509.677 350.939L509.463 349.926C509.395 349.939 509.252 349.971 509.124 349.971C508.852 349.971 508.664 349.869 508.664 349.491V347.114H509.587V346.091ZM512.558 351.096C514.048 351.096 514.975 350.076 514.975 348.565C514.975 347.043 514.048 346.027 512.558 346.027C511.069 346.027 510.142 347.043 510.142 348.565C510.142 350.076 511.069 351.096 512.558 351.096ZM512.565 350.041C511.878 350.041 511.526 349.412 511.526 348.555C511.526 347.699 511.878 347.066 512.565 347.066C513.239 347.066 513.591 347.699 513.591 348.555C513.591 349.412 513.239 350.041 512.565 350.041ZM515.779 351H517.14V348.223C517.14 347.619 517.582 347.203 518.182 347.203C518.371 347.203 518.63 347.235 518.758 347.277V346.069C518.636 346.04 518.467 346.021 518.329 346.021C517.78 346.021 517.329 346.34 517.15 346.947H517.099V346.091H515.779V351Z" fill="#7F838B"/>
<path d="M411.682 319H414.478C415.949 319 416.732 318.233 416.732 317.191C416.732 316.223 416.038 315.638 415.293 315.603V315.539C415.974 315.385 416.476 314.903 416.476 314.132C416.476 313.151 415.747 312.455 414.303 312.455H411.682V319ZM413.066 317.869V316.13H414.226C414.891 316.13 415.303 316.513 415.303 317.054C415.303 317.546 414.967 317.869 414.194 317.869H413.066ZM413.066 315.194V313.573H414.117C414.731 313.573 415.079 313.89 415.079 314.363C415.079 314.88 414.657 315.194 414.092 315.194H413.066ZM425.328 314.746C425.146 313.234 424.002 312.365 422.487 312.365C420.758 312.365 419.438 313.586 419.438 315.727C419.438 317.862 420.736 319.089 422.487 319.089C424.165 319.089 425.178 317.974 425.328 316.769L423.929 316.763C423.797 317.463 423.248 317.865 422.509 317.865C421.516 317.865 420.841 317.127 420.841 315.727C420.841 314.366 421.506 313.589 422.519 313.589C423.277 313.589 423.823 314.027 423.929 314.746H425.328ZM427.614 319.093C428.34 319.093 428.809 318.776 429.049 318.319H429.087V319H430.379V315.689C430.379 314.519 429.388 314.027 428.295 314.027C427.119 314.027 426.345 314.589 426.157 315.484L427.416 315.587C427.509 315.261 427.799 315.021 428.288 315.021C428.752 315.021 429.017 315.254 429.017 315.657V315.676C429.017 315.993 428.681 316.034 427.828 316.117C426.857 316.207 425.984 316.533 425.984 317.629C425.984 318.6 426.678 319.093 427.614 319.093ZM428.004 318.153C427.585 318.153 427.285 317.958 427.285 317.584C427.285 317.201 427.601 317.012 428.081 316.945C428.378 316.903 428.864 316.833 429.027 316.724V317.245C429.027 317.76 428.602 318.153 428.004 318.153ZM432.715 316.162C432.719 315.529 433.096 315.158 433.645 315.158C434.192 315.158 434.521 315.516 434.518 316.117V319H435.879V315.874C435.879 314.73 435.208 314.027 434.186 314.027C433.457 314.027 432.93 314.385 432.709 314.957H432.651V314.091H431.354V319H432.715V316.162ZM439.483 314.091H438.559V312.915H437.197V314.091H436.526V315.114H437.197V317.67C437.191 318.632 437.846 319.109 438.834 319.067C439.185 319.054 439.435 318.984 439.572 318.939L439.358 317.926C439.291 317.939 439.147 317.971 439.019 317.971C438.748 317.971 438.559 317.869 438.559 317.491V315.114H439.483V314.091ZM442.473 319.096C443.688 319.096 444.506 318.505 444.697 317.594L443.438 317.511C443.301 317.885 442.949 318.08 442.495 318.08C441.815 318.08 441.383 317.629 441.383 316.897V316.894H444.726V316.52C444.726 314.852 443.716 314.027 442.419 314.027C440.974 314.027 440.038 315.053 440.038 316.568C440.038 318.124 440.961 319.096 442.473 319.096ZM441.383 316.05C441.412 315.491 441.837 315.043 442.441 315.043C443.032 315.043 443.441 315.465 443.445 316.05H441.383ZM447.771 319.096C448.985 319.096 449.804 318.505 449.995 317.594L448.736 317.511C448.599 317.885 448.247 318.08 447.793 318.08C447.113 318.08 446.681 317.629 446.681 316.897V316.894H450.024V316.52C450.024 314.852 449.014 314.027 447.717 314.027C446.272 314.027 445.336 315.053 445.336 316.568C445.336 318.124 446.259 319.096 447.771 319.096ZM446.681 316.05C446.71 315.491 447.135 315.043 447.739 315.043C448.33 315.043 448.739 315.465 448.743 316.05H446.681ZM452.193 316.162C452.196 315.529 452.573 315.158 453.123 315.158C453.67 315.158 453.999 315.516 453.996 316.117V319H455.357V315.874C455.357 314.73 454.686 314.027 453.663 314.027C452.935 314.027 452.407 314.385 452.187 314.957H452.129V314.091H450.832V319H452.193V316.162Z" fill="#7F838B"/>
<path d="M437.057 424H439.854C441.324 424 442.107 423.233 442.107 422.191C442.107 421.223 441.413 420.638 440.669 420.603V420.539C441.349 420.385 441.851 419.903 441.851 419.132C441.851 418.151 441.122 417.455 439.678 417.455H437.057V424ZM438.441 422.869V421.13H439.601C440.266 421.13 440.678 421.513 440.678 422.054C440.678 422.546 440.343 422.869 439.569 422.869H438.441ZM438.441 420.194V418.573H439.492C440.106 418.573 440.454 418.89 440.454 419.363C440.454 419.88 440.033 420.194 439.467 420.194H438.441ZM444.928 424H449.118V422.859H446.312V417.455H444.928V424ZM449.928 424H451.29V419.091H449.928V424ZM450.612 418.458C451.018 418.458 451.35 418.148 451.35 417.768C451.35 417.391 451.018 417.081 450.612 417.081C450.209 417.081 449.877 417.391 449.877 417.768C449.877 418.148 450.209 418.458 450.612 418.458ZM453.661 421.162C453.664 420.529 454.041 420.158 454.591 420.158C455.137 420.158 455.467 420.516 455.463 421.117V424H456.825V420.874C456.825 419.73 456.154 419.027 455.131 419.027C454.402 419.027 453.875 419.385 453.654 419.957H453.597V419.091H452.299V424H453.661V421.162ZM457.817 424H459.178V422.44L459.546 422.022L460.885 424H462.48L460.565 421.216L462.387 419.091H460.824L459.252 420.954H459.178V417.455H457.817V424Z" fill="#7F838B"/>
<path d="M509.941 475H512.737C514.207 475 514.99 474.233 514.99 473.191C514.99 472.223 514.297 471.638 513.552 471.603V471.539C514.233 471.385 514.735 470.903 514.735 470.132C514.735 469.151 514.006 468.455 512.562 468.455H509.941V475ZM511.325 473.869V472.13H512.485C513.15 472.13 513.562 472.513 513.562 473.054C513.562 473.546 513.226 473.869 512.453 473.869H511.325ZM511.325 471.194V469.573H512.376C512.99 469.573 513.338 469.89 513.338 470.363C513.338 470.88 512.916 471.194 512.351 471.194H511.325ZM518.94 475L519.426 473.507H521.788L522.274 475H523.757L521.5 468.455H519.717L517.457 475H518.94ZM519.778 472.427L520.583 469.95H520.634L521.439 472.427H519.778ZM524.438 475H525.799V472.223C525.799 471.619 526.24 471.203 526.841 471.203C527.03 471.203 527.289 471.235 527.417 471.277V470.069C527.295 470.04 527.126 470.021 526.988 470.021C526.439 470.021 525.988 470.34 525.809 470.947H525.758V470.091H524.438V475ZM530.029 475.096C531.336 475.096 532.158 474.329 532.221 473.201H530.937C530.857 473.725 530.512 474.019 530.045 474.019C529.409 474.019 528.997 473.485 528.997 472.545C528.997 471.619 529.412 471.088 530.045 471.088C530.544 471.088 530.863 471.417 530.937 471.906H532.221C532.164 470.772 531.304 470.027 530.023 470.027C528.533 470.027 527.613 471.059 527.613 472.565C527.613 474.057 528.517 475.096 530.029 475.096ZM534.412 475.093C535.138 475.093 535.607 474.776 535.847 474.319H535.885V475H537.177V471.689C537.177 470.519 536.186 470.027 535.093 470.027C533.917 470.027 533.143 470.589 532.955 471.484L534.214 471.587C534.307 471.261 534.597 471.021 535.086 471.021C535.55 471.021 535.815 471.254 535.815 471.657V471.676C535.815 471.993 535.479 472.034 534.626 472.117C533.655 472.207 532.782 472.533 532.782 473.629C532.782 474.6 533.476 475.093 534.412 475.093ZM534.802 474.153C534.383 474.153 534.083 473.958 534.083 473.584C534.083 473.201 534.399 473.012 534.879 472.945C535.176 472.903 535.662 472.833 535.825 472.724V473.245C535.825 473.76 535.4 474.153 534.802 474.153ZM539.961 475.08C540.753 475.08 541.166 474.623 541.354 474.214H541.412V475H542.754V468.455H541.396V470.915H541.354C541.172 470.516 540.779 470.027 539.958 470.027C538.881 470.027 537.97 470.864 537.97 472.552C537.97 474.195 538.842 475.08 539.961 475.08ZM540.392 473.996C539.724 473.996 539.36 473.402 539.36 472.545C539.36 471.695 539.718 471.11 540.392 471.11C541.054 471.11 541.425 471.67 541.425 472.545C541.425 473.421 541.047 473.996 540.392 473.996ZM546.03 475.096C547.244 475.096 548.062 474.505 548.254 473.594L546.995 473.511C546.858 473.885 546.506 474.08 546.052 474.08C545.371 474.08 544.94 473.629 544.94 472.897V472.894H548.283V472.52C548.283 470.852 547.273 470.027 545.975 470.027C544.531 470.027 543.594 471.053 543.594 472.568C543.594 474.124 544.518 475.096 546.03 475.096ZM544.94 472.05C544.969 471.491 545.394 471.043 545.998 471.043C546.589 471.043 546.998 471.465 547.001 472.05H544.94Z" fill="#7F838B"/>
<path d="M424.882 523H427.679C429.149 523 429.932 522.233 429.932 521.191C429.932 520.223 429.238 519.638 428.494 519.603V519.539C429.174 519.385 429.676 518.903 429.676 518.132C429.676 517.151 428.948 516.455 427.503 516.455H424.882V523ZM426.266 521.869V520.13H427.426C428.091 520.13 428.503 520.513 428.503 521.054C428.503 521.546 428.168 521.869 427.394 521.869H426.266ZM426.266 519.194V517.573H427.318C427.931 517.573 428.28 517.89 428.28 518.363C428.28 518.88 427.858 519.194 427.292 519.194H426.266ZM432.753 523H435.55C437.02 523 437.803 522.233 437.803 521.191C437.803 520.223 437.11 519.638 436.365 519.603V519.539C437.046 519.385 437.547 518.903 437.547 518.132C437.547 517.151 436.819 516.455 435.374 516.455H432.753V523ZM434.137 521.869V520.13H435.297C435.962 520.13 436.375 520.513 436.375 521.054C436.375 521.546 436.039 521.869 435.265 521.869H434.137ZM434.137 519.194V517.573H435.189C435.802 517.573 436.151 517.89 436.151 518.363C436.151 518.88 435.729 519.194 435.163 519.194H434.137ZM440.834 523.096C442.049 523.096 442.867 522.505 443.059 521.594L441.799 521.511C441.662 521.885 441.31 522.08 440.857 522.08C440.176 522.08 439.744 521.629 439.744 520.897V520.894H443.087V520.52C443.087 518.852 442.078 518.027 440.78 518.027C439.335 518.027 438.399 519.053 438.399 520.568C438.399 522.124 439.323 523.096 440.834 523.096ZM439.744 520.05C439.773 519.491 440.198 519.043 440.802 519.043C441.394 519.043 441.803 519.465 441.806 520.05H439.744ZM445.256 520.162C445.26 519.529 445.637 519.158 446.186 519.158C446.733 519.158 447.062 519.516 447.059 520.117V523H448.421V519.874C448.421 518.73 447.749 518.027 446.727 518.027C445.998 518.027 445.471 518.385 445.25 518.957H445.193V518.091H443.895V523H445.256V520.162ZM451.631 523.096C452.938 523.096 453.759 522.329 453.823 521.201H452.538C452.458 521.725 452.113 522.019 451.647 522.019C451.011 522.019 450.598 521.485 450.598 520.545C450.598 519.619 451.014 519.088 451.647 519.088C452.145 519.088 452.465 519.417 452.538 519.906H453.823C453.766 518.772 452.906 518.027 451.624 518.027C450.135 518.027 449.214 519.059 449.214 520.565C449.214 522.057 450.119 523.096 451.631 523.096ZM455.975 520.162C455.979 519.529 456.365 519.158 456.921 519.158C457.474 519.158 457.8 519.513 457.797 520.117V523H459.159V519.874C459.162 518.724 458.484 518.027 457.461 518.027C456.717 518.027 456.218 518.379 455.994 518.957H455.937V516.455H454.614V523H455.975V520.162Z" fill="#7F838B"/>
<path d="M197.046 633L197.532 631.507H199.894L200.38 633H201.862L199.606 626.455H197.823L195.563 633H197.046ZM197.883 630.427L198.689 627.95H198.74L199.545 630.427H197.883ZM208.912 628.57H210.318C210.139 627.276 208.998 626.365 207.518 626.365C205.789 626.365 204.456 627.612 204.456 629.734C204.456 631.805 205.703 633.089 207.547 633.089C209.199 633.089 210.378 632.044 210.378 630.322V629.497H207.639V630.539H209.046C209.027 631.351 208.474 631.865 207.553 631.865C206.514 631.865 205.859 631.089 205.859 629.721C205.859 628.359 206.54 627.589 207.54 627.589C208.253 627.589 208.736 627.957 208.912 628.57ZM212.711 633.093C213.437 633.093 213.907 632.776 214.146 632.319H214.185V633H215.476V629.689C215.476 628.519 214.485 628.027 213.392 628.027C212.216 628.027 211.442 628.589 211.254 629.484L212.513 629.587C212.606 629.261 212.897 629.021 213.386 629.021C213.849 629.021 214.114 629.254 214.114 629.657V629.676C214.114 629.993 213.779 630.034 212.925 630.117C211.954 630.207 211.081 630.533 211.081 631.629C211.081 632.6 211.775 633.093 212.711 633.093ZM213.101 632.153C212.683 632.153 212.382 631.958 212.382 631.584C212.382 631.201 212.698 631.012 213.178 630.945C213.475 630.903 213.961 630.833 214.124 630.724V631.245C214.124 631.76 213.699 632.153 213.101 632.153ZM219.062 628.091H218.139V626.915H216.777V628.091H216.106V629.114H216.777V631.67C216.771 632.632 217.426 633.109 218.413 633.067C218.765 633.054 219.014 632.984 219.152 632.939L218.938 631.926C218.871 631.939 218.727 631.971 218.599 631.971C218.327 631.971 218.139 631.869 218.139 631.491V629.114H219.062V628.091ZM222.053 633.096C223.267 633.096 224.085 632.505 224.277 631.594L223.018 631.511C222.88 631.885 222.529 632.08 222.075 632.08C221.394 632.08 220.963 631.629 220.963 630.897V630.894H224.306V630.52C224.306 628.852 223.296 628.027 221.998 628.027C220.554 628.027 219.617 629.053 219.617 630.568C219.617 632.124 220.541 633.096 222.053 633.096ZM220.963 630.05C220.992 629.491 221.417 629.043 222.021 629.043C222.612 629.043 223.021 629.465 223.024 630.05H220.963Z" fill="#7F838B"/>
<path d="M182.157 543L182.643 541.507H185.005L185.49 543H186.973L184.717 536.455H182.934L180.674 543H182.157ZM182.994 540.427L183.8 537.95H183.851L184.656 540.427H182.994ZM192.002 543C193.997 543 195.205 541.766 195.205 539.721C195.205 537.682 193.997 536.455 192.022 536.455H189.682V543H192.002ZM191.066 541.814V537.64H191.948C193.175 537.64 193.824 538.267 193.824 539.721C193.824 541.181 193.175 541.814 191.945 541.814H191.066ZM196.123 543H197.485V538.091H196.123V543ZM196.807 537.458C197.213 537.458 197.546 537.148 197.546 536.768C197.546 536.391 197.213 536.081 196.807 536.081C196.405 536.081 196.072 536.391 196.072 536.768C196.072 537.148 196.405 537.458 196.807 537.458ZM202.579 539.491C202.458 538.586 201.729 538.027 200.489 538.027C199.233 538.027 198.405 538.609 198.408 539.555C198.405 540.29 198.869 540.766 199.827 540.958L200.677 541.127C201.106 541.213 201.301 541.37 201.307 541.616C201.301 541.907 200.984 542.115 200.508 542.115C200.022 542.115 199.699 541.907 199.616 541.507L198.277 541.578C198.405 542.517 199.204 543.096 200.505 543.096C201.777 543.096 202.688 542.447 202.691 541.479C202.688 540.769 202.224 540.344 201.272 540.149L200.383 539.97C199.926 539.871 199.757 539.714 199.76 539.478C199.757 539.184 200.089 538.992 200.511 538.992C200.984 538.992 201.266 539.251 201.333 539.567L202.579 539.491ZM204.829 540.162C204.832 539.529 205.219 539.158 205.775 539.158C206.328 539.158 206.654 539.513 206.651 540.117V543H208.012V539.874C208.015 538.724 207.338 538.027 206.315 538.027C205.57 538.027 205.072 538.379 204.848 538.957H204.79V536.455H203.467V543H204.829V540.162Z" fill="#7F838B"/>
<path d="M119.883 419L120.369 417.507H122.731L123.217 419H124.7L122.443 412.455H120.66L118.401 419H119.883ZM120.721 416.427L121.526 413.95H121.577L122.383 416.427H120.721ZM129.729 419C131.723 419 132.931 417.766 132.931 415.721C132.931 413.682 131.723 412.455 129.748 412.455H127.409V419H129.729ZM128.793 417.814V413.64H129.675C130.902 413.64 131.551 414.267 131.551 415.721C131.551 417.181 130.902 417.814 129.671 417.814H128.793ZM133.85 419H135.211V416.223C135.211 415.619 135.653 415.203 136.253 415.203C136.442 415.203 136.701 415.235 136.829 415.277V414.069C136.707 414.04 136.538 414.021 136.4 414.021C135.851 414.021 135.4 414.34 135.221 414.947H135.17V414.091H133.85V419ZM139.441 419.096C140.93 419.096 141.857 418.076 141.857 416.565C141.857 415.043 140.93 414.027 139.441 414.027C137.952 414.027 137.025 415.043 137.025 416.565C137.025 418.076 137.952 419.096 139.441 419.096ZM139.448 418.041C138.76 418.041 138.409 417.412 138.409 416.555C138.409 415.699 138.76 415.066 139.448 415.066C140.122 415.066 140.473 415.699 140.473 416.555C140.473 417.412 140.122 418.041 139.448 418.041ZM142.662 420.841H144.023V418.214H144.065C144.253 418.623 144.666 419.08 145.458 419.08C146.577 419.08 147.449 418.195 147.449 416.552C147.449 414.864 146.538 414.027 145.461 414.027C144.64 414.027 144.247 414.516 144.065 414.915H144.004V414.091H142.662V420.841ZM143.994 416.545C143.994 415.67 144.365 415.11 145.027 415.11C145.701 415.11 146.059 415.695 146.059 416.545C146.059 417.402 145.695 417.996 145.027 417.996C144.371 417.996 143.994 417.421 143.994 416.545Z" fill="#7F838B"/>
<path d="M215.794 401L216.28 399.507H218.642L219.128 401H220.611L218.354 394.455H216.571L214.311 401H215.794ZM216.631 398.427L217.437 395.95H217.488L218.293 398.427H216.631ZM223.319 401H227.509V399.859H224.703V394.455H223.319V401ZM228.319 401H229.681V396.091H228.319V401ZM229.003 395.458C229.409 395.458 229.741 395.148 229.741 394.768C229.741 394.391 229.409 394.081 229.003 394.081C228.6 394.081 228.268 394.391 228.268 394.768C228.268 395.148 228.6 395.458 229.003 395.458ZM232.052 398.162C232.055 397.529 232.432 397.158 232.982 397.158C233.528 397.158 233.858 397.516 233.854 398.117V401H235.216V397.874C235.216 396.73 234.545 396.027 233.522 396.027C232.793 396.027 232.266 396.385 232.045 396.957H231.988V396.091H230.69V401H232.052V398.162ZM236.208 401H237.57V399.44L237.937 399.022L239.276 401H240.871L238.957 398.216L240.778 396.091H239.215L237.643 397.954H237.57V394.455H236.208V401Z" fill="#7F838B"/>
<path d="M78.9049 345L79.3907 343.507H81.7525L82.2383 345H83.7213L81.4649 338.455H79.6815L77.4219 345H78.9049ZM79.7422 342.427L80.5476 339.95H80.5988L81.4041 342.427H79.7422ZM89.9809 340.337H91.3072C91.288 339.17 90.3292 338.365 88.8719 338.365C87.4368 338.365 86.3853 339.158 86.3917 340.347C86.3885 341.312 87.0693 341.865 88.1751 342.13L88.8878 342.309C89.6005 342.482 89.9969 342.686 90.0001 343.127C89.9969 343.607 89.543 343.933 88.8399 343.933C88.1208 343.933 87.603 343.6 87.5583 342.945H86.2192C86.2543 344.361 87.2675 345.093 88.8559 345.093C90.4539 345.093 91.3935 344.329 91.3967 343.13C91.3935 342.04 90.5721 341.462 89.4344 341.206L88.8463 341.066C88.2774 340.935 87.8012 340.724 87.8108 340.254C87.8108 339.832 88.1847 339.522 88.8623 339.522C89.5238 339.522 89.9297 339.822 89.9809 340.337ZM92.221 345H93.5825V340.091H92.221V345ZM92.9049 339.458C93.3108 339.458 93.6432 339.148 93.6432 338.768C93.6432 338.391 93.3108 338.081 92.9049 338.081C92.5022 338.081 92.1698 338.391 92.1698 338.768C92.1698 339.148 92.5022 339.458 92.9049 339.458ZM97.2033 340.091H96.2796V338.915H94.9181V340.091H94.247V341.114H94.9181V343.67C94.9117 344.632 95.5669 345.109 96.5545 345.067C96.9061 345.054 97.1553 344.984 97.2928 344.939L97.0786 343.926C97.0115 343.939 96.8677 343.971 96.7399 343.971C96.4682 343.971 96.2796 343.869 96.2796 343.491V341.114H97.2033V340.091ZM100.194 345.096C101.408 345.096 102.226 344.505 102.418 343.594L101.159 343.511C101.022 343.885 100.67 344.08 100.216 344.08C99.5353 344.08 99.1038 343.629 99.1038 342.897V342.894H102.447V342.52C102.447 340.852 101.437 340.027 100.139 340.027C98.6947 340.027 97.7583 341.053 97.7583 342.568C97.7583 344.124 98.6819 345.096 100.194 345.096ZM99.1038 342.05C99.1326 341.491 99.5577 341.043 100.162 341.043C100.753 341.043 101.162 341.465 101.165 342.05H99.1038Z" fill="#7F838B"/>
<path d="M78.7386 256L79.2244 254.507H81.5862L82.072 256H83.555L81.2986 249.455H79.5152L77.2556 256H78.7386ZM79.5759 253.427L80.3813 250.95H80.4324L81.2378 253.427H79.5759ZM86.2638 249.455V256H87.6061V251.724H87.6605L89.3543 255.968H90.2684L91.9623 251.74H92.0166V256H93.359V249.455H91.6523L89.8497 253.852H89.773L87.9705 249.455H86.2638ZM95.7924 256.093C96.5179 256.093 96.9877 255.776 97.2274 255.319H97.2658V256H98.557V252.689C98.557 251.519 97.5662 251.027 96.4732 251.027C95.297 251.027 94.5236 251.589 94.335 252.484L95.5943 252.587C95.687 252.261 95.9778 252.021 96.4668 252.021C96.9302 252.021 97.1955 252.254 97.1955 252.657V252.676C97.1955 252.993 96.8599 253.034 96.0066 253.117C95.035 253.207 94.1625 253.533 94.1625 254.629C94.1625 255.6 94.856 256.093 95.7924 256.093ZM96.1823 255.153C95.7637 255.153 95.4632 254.958 95.4632 254.584C95.4632 254.201 95.7796 254.012 96.259 253.945C96.5563 253.903 97.0421 253.833 97.2051 253.724V254.245C97.2051 254.76 96.78 255.153 96.1823 255.153ZM99.5323 256H100.894V251.091H99.5323V256ZM100.216 250.458C100.622 250.458 100.954 250.148 100.954 249.768C100.954 249.391 100.622 249.081 100.216 249.081C99.8135 249.081 99.4811 249.391 99.4811 249.768C99.4811 250.148 99.8135 250.458 100.216 250.458ZM103.265 253.162C103.268 252.529 103.645 252.158 104.195 252.158C104.741 252.158 105.071 252.516 105.067 253.117V256H106.429V252.874C106.429 251.73 105.758 251.027 104.735 251.027C104.006 251.027 103.479 251.385 103.258 251.957H103.201V251.091H101.903V256H103.265V253.162Z" fill="#7F838B"/>
<path d="M230.781 258L231.267 256.507H233.629L234.115 258H235.598L233.341 251.455H231.558L229.298 258H230.781ZM231.619 255.427L232.424 252.95H232.475L233.281 255.427H231.619ZM238.307 258H239.691V255.68H240.7L241.941 258H243.468L242.078 255.456C242.823 255.136 243.235 254.488 243.235 253.593C243.235 252.292 242.375 251.455 240.889 251.455H238.307V258ZM239.691 254.567V252.586H240.624C241.423 252.586 241.809 252.941 241.809 253.593C241.809 254.241 241.423 254.567 240.63 254.567H239.691ZM246.245 258.096C247.735 258.096 248.661 257.076 248.661 255.565C248.661 254.043 247.735 253.027 246.245 253.027C244.756 253.027 243.829 254.043 243.829 255.565C243.829 257.076 244.756 258.096 246.245 258.096ZM246.252 257.041C245.565 257.041 245.213 256.412 245.213 255.555C245.213 254.699 245.565 254.066 246.252 254.066C246.926 254.066 247.278 254.699 247.278 255.555C247.278 256.412 246.926 257.041 246.252 257.041ZM249.466 259.841H250.827V257.214H250.869C251.057 257.623 251.47 258.08 252.262 258.08C253.381 258.08 254.253 257.195 254.253 255.552C254.253 253.864 253.343 253.027 252.265 253.027C251.444 253.027 251.051 253.516 250.869 253.915H250.808V253.091H249.466V259.841ZM250.799 255.545C250.799 254.67 251.169 254.11 251.831 254.11C252.505 254.11 252.863 254.695 252.863 255.545C252.863 256.402 252.499 256.996 251.831 256.996C251.176 256.996 250.799 256.421 250.799 255.545ZM257.317 258.096C258.532 258.096 259.35 257.505 259.542 256.594L258.282 256.511C258.145 256.885 257.794 257.08 257.34 257.08C256.659 257.08 256.227 256.629 256.227 255.897V255.894H259.57V255.52C259.57 253.852 258.561 253.027 257.263 253.027C255.818 253.027 254.882 254.053 254.882 255.568C254.882 257.124 255.806 258.096 257.317 258.096ZM256.227 255.05C256.256 254.491 256.681 254.043 257.285 254.043C257.877 254.043 258.286 254.465 258.289 255.05H256.227Z" fill="#7F838B"/>
<path d="M171.857 212L172.343 210.507H174.705L175.191 212H176.674L174.417 205.455H172.634L170.374 212H171.857ZM172.694 209.427L173.5 206.95H173.551L174.356 209.427H172.694ZM181.703 212C183.697 212 184.905 210.766 184.905 208.721C184.905 206.682 183.697 205.455 181.722 205.455H179.382V212H181.703ZM180.766 210.814V206.64H181.648C182.876 206.64 183.524 207.267 183.524 208.721C183.524 210.181 182.876 210.814 181.645 210.814H180.766ZM188.042 212.096C189.531 212.096 190.458 211.076 190.458 209.565C190.458 208.043 189.531 207.027 188.042 207.027C186.552 207.027 185.625 208.043 185.625 209.565C185.625 211.076 186.552 212.096 188.042 212.096ZM188.048 211.041C187.361 211.041 187.009 210.412 187.009 209.555C187.009 208.699 187.361 208.066 188.048 208.066C188.722 208.066 189.074 208.699 189.074 209.555C189.074 210.412 188.722 211.041 188.048 211.041ZM193.48 212.096C194.97 212.096 195.896 211.076 195.896 209.565C195.896 208.043 194.97 207.027 193.48 207.027C191.991 207.027 191.064 208.043 191.064 209.565C191.064 211.076 191.991 212.096 193.48 212.096ZM193.487 211.041C192.799 211.041 192.448 210.412 192.448 209.555C192.448 208.699 192.799 208.066 193.487 208.066C194.161 208.066 194.513 208.699 194.513 209.555C194.513 210.412 194.161 211.041 193.487 211.041ZM196.701 212H198.062V209.223C198.062 208.619 198.503 208.203 199.104 208.203C199.293 208.203 199.552 208.235 199.679 208.277V207.069C199.558 207.04 199.389 207.021 199.251 207.021C198.701 207.021 198.251 207.34 198.072 207.947H198.021V207.091H196.701V212Z" fill="#7F838B"/>
<path d="M158.072 173L158.558 171.507H160.92L161.405 173H162.888L160.632 166.455H158.849L156.589 173H158.072ZM158.909 170.427L159.715 167.95H159.766L160.571 170.427H158.909ZM165.597 173H166.981V170.296H169.79V173H171.171V166.455H169.79V169.155H166.981V166.455H165.597V173ZM173.605 173.093C174.331 173.093 174.801 172.776 175.04 172.319H175.079V173H176.37V169.689C176.37 168.519 175.379 168.027 174.286 168.027C173.11 168.027 172.336 168.589 172.148 169.484L173.407 169.587C173.5 169.261 173.791 169.021 174.28 169.021C174.743 169.021 175.008 169.254 175.008 169.657V169.676C175.008 169.993 174.673 170.034 173.819 170.117C172.848 170.207 171.975 170.533 171.975 171.629C171.975 172.6 172.669 173.093 173.605 173.093ZM173.995 172.153C173.577 172.153 173.276 171.958 173.276 171.584C173.276 171.201 173.593 171.012 174.072 170.945C174.369 170.903 174.855 170.833 175.018 170.724V171.245C175.018 171.76 174.593 172.153 173.995 172.153ZM178.707 166.455H177.345V173H178.707V166.455ZM181.078 166.455H179.716V173H181.078V166.455Z" fill="#7F838B"/>
<defs>
<linearGradient id="paint0_linear_2_137" x1="254" y1="547" x2="477" y2="547" gradientUnits="userSpaceOnUse">
<stop stop-color="#30D9D4"/>
<stop offset="0.453729" stop-color="#30D9D4" stop-opacity="0.25"/>
<stop offset="1" stop-color="#30D9D4"/>
</linearGradient>
<linearGradient id="paint1_linear_2_137" x1="254" y1="547" x2="477" y2="547" gradientUnits="userSpaceOnUse">
<stop stop-color="#30D9D4"/>
<stop offset="0.453729" stop-color="#30D9D4" stop-opacity="0.25"/>
<stop offset="1" stop-color="#30D9D4"/>
</linearGradient>
<linearGradient id="paint2_linear_2_137" x1="350.75" y1="226" x2="350.75" y2="476" gradientUnits="userSpaceOnUse">
<stop stop-color="#E44C4D"/>
<stop offset="0.5042" stop-color="#E44C4D" stop-opacity="0.15"/>
<stop offset="1" stop-color="#E44C4D"/>
</linearGradient>
</defs>
</svg>
