<svg width="708" height="708" viewBox="0 0 708 708" fill="none" xmlns="http://www.w3.org/2000/svg">
<path d="M232 206H202V244H232V206Z" fill="#101319"/>
<path fill-rule="evenodd" clip-rule="evenodd" d="M641 296.708V191.801H561.931V183.308H567.436V115.935L552.923 120.931L538.911 118.933L502.379 103.944L495.874 95.4511L482.862 100.447L476.357 106.942H467.849L461.344 100.447H435.321V78.964L446.831 67.473V33H360.256V61.9773L373.267 78.964V100.447H353.75L349.246 111.439V120.931L332.732 126.927V130.923L314.216 140.416V156.329H278.185L267.175 164.323H260.169L248.158 156.329H211.627L205.121 150.833L196.614 156.329L175.595 127.352L160.082 136.345V159.327H97.5274L83.0148 179.811V228.773H89.02L114.542 248.757V273.238L89.02 290.724H66V437.609H124.05V437.616H154.5V453.5H189.107V442.5H241.152V469.5H280V510.552H312.715V563.511H405.795V568.007H315.217V592.488H385.778V674.924H455.839V592.488H484.364V568.007H442.327V563.511H620.983V465.587H641V317.203H600.965V310.708L641 296.708ZM465 184.617H538.5V190.113H470V231.081H465V184.617ZM533.046 407.942V442.915H484.004V407.942H533.046ZM296 211.096H319.5L296 224.423V211.096ZM309.5 290.035V304.423H234.5V290.035H309.5ZM157 206.923H274.5V243.071H171V258H157V206.923ZM383 484.882H336.5V417.923H315V383.961H166.5V333.001H263.5V352.923H334V410.94H354V433.922H383V484.882ZM494.513 467.923H461.344V396.923H399.5V381.463H385V333.001H463.486V464.898H494.513V467.923ZM463.5 333.001V265.054H509.5V301.526H526.5V333.001H463.5ZM588 467.923H530.95V464.898H588V467.923ZM315.5 439H264.5V455H267L273.5 448.5H312V494H315.5V439ZM431 243.923H413V293.923H431V243.923Z" fill="#15181E"/>
<mask id="mask0_2_610" style="mask-type:alpha" maskUnits="userSpaceOnUse" x="66" y="33" width="575" height="642">
<path fill-rule="evenodd" clip-rule="evenodd" d="M641 296.708V191.801H561.931V183.308H567.436V115.935L552.923 120.931L538.911 118.933L502.379 103.944L495.874 95.4511L482.862 100.447L476.357 106.942H467.849L461.344 100.447H435.321V78.964L446.831 67.473V33H360.256V61.9773L373.267 78.964V100.447H353.75L349.246 111.439V120.931L332.732 126.927V130.923L314.216 140.416V156.329H278.185L267.175 164.323H260.169L248.158 156.329H211.627L205.121 150.833L196.614 156.329L175.595 127.352L160.082 136.345V159.327H97.5274L83.0148 179.811V228.773H89.02L114.542 248.757V273.238L89.02 290.724H66V437.609H124.05V437.616H154.5V453.5H189.107V442.5H241.152V469.5H280V510.552H312.715V563.511H405.795V568.007H315.217V592.488H385.778V674.924H455.839V592.488H484.364V568.007H442.327V563.511H620.983V465.587H641V317.203H600.965V310.708L641 296.708ZM465 184.617H538.5V190.113H470V231.081H465V184.617ZM533.046 407.942V442.915H484.004V407.942H533.046ZM296 211.096H319.5L296 224.423V211.096ZM309.5 290.035V304.423H234.5V290.035H309.5ZM157 206.923H274.5V243.071H171V258H157V206.923ZM383 484.882H336.5V417.923H315V383.961H166.5V333.001H263.5V352.923H334V410.94H354V433.922H383V484.882ZM494.513 467.923H461.344V396.923H399.5V381.463H385V333.001H463.486V464.898H494.513V467.923ZM463.5 333.001V265.054H509.5V301.526H526.5V333.001H463.5ZM588 467.923H530.95V464.898H588V467.923ZM315.5 439H264.5V455H267L273.5 448.5H312V494H315.5V439ZM431 243.923H413V293.923H431V243.923Z" fill="#15181E"/>
</mask>
<g mask="url(#mask0_2_610)">
<path d="M128.5 357.5H107.5V408.5H128.5V357.5Z" fill="#22252B" stroke="#22252B"/>
<path d="M135.5 357.5H129.5V363.5H135.5V357.5Z" fill="#22252B" stroke="#22252B"/>
<path d="M199.5 284.5H193.5V290.5H199.5V284.5Z" fill="#22252B" stroke="#22252B"/>
<path d="M247.5 243.5H242.5V248.5H247.5V243.5Z" fill="#22252B" stroke="#22252B"/>
<path d="M590.5 355.423H532.5V372.423H590.5V355.423Z" fill="#22252B" stroke="#22252B"/>
<path d="M89.5 178.5H84.5V183.5H89.5V178.5Z" fill="#22252B" stroke="#22252B"/>
<path d="M100.5 161.5H95.5V166.5H100.5V161.5Z" fill="#22252B" stroke="#22252B"/>
<path d="M243.5 278.423H233.5V288.423H243.5V278.423Z" fill="#22252B" stroke="#22252B"/>
<path d="M263.5 322.5H253.5V332.5H263.5V322.5Z" fill="#22252B" stroke="#22252B"/>
<path d="M310.5 259.5H300.5V269.5H310.5V259.5Z" fill="#22252B" stroke="#22252B"/>
<path d="M328.5 254.5H325.5V257.5H328.5V254.5Z" fill="#22252B" stroke="#22252B"/>
<path d="M474.5 333.423H464.5V351.423H474.5V333.423Z" fill="#22252B" stroke="#22252B"/>
<path d="M485.5 333.423H475.5V344.423H485.5V333.423Z" fill="#22252B" stroke="#22252B"/>
<path d="M511.5 333.423H501.5V344.423H511.5V333.423Z" fill="#22252B" stroke="#22252B"/>
<path d="M590.5 219.423H532.5V239.423H590.5V219.423Z" fill="#22252B" stroke="#22252B"/>
<path d="M640.5 250.423H623.5V259.423H640.5V250.423Z" fill="#22252B" stroke="#22252B"/>
<path d="M583.5 240.5H570.5V246.5H583.5V240.5Z" fill="#22252B" stroke="#22252B"/>
<path d="M620.5 219.5H611.5V228.5H620.5V219.5Z" fill="#22252B" stroke="#22252B"/>
<path d="M567.5 154.5H560.5V162.5H567.5V154.5Z" fill="#22252B" stroke="#22252B"/>
<path d="M567.5 149.5H564.5V152.5H567.5V149.5Z" fill="#22252B" stroke="#22252B"/>
<path d="M510.5 236.423H500.5V263.423H510.5V236.423Z" fill="#22252B" stroke="#22252B"/>
<path d="M235.5 384.5H225.5V392.5H235.5V384.5Z" fill="#22252B" stroke="#22252B"/>
<path d="M356.5 485.5H350.5V489.5H356.5V485.5Z" fill="#22252B" stroke="#22252B"/>
<path d="M461.5 459.5H456.5V464.5H461.5V459.5Z" fill="#22252B" stroke="#22252B"/>
<path d="M495.5 468.5H487.5V472.5H495.5V468.5Z" fill="#22252B" stroke="#22252B"/>
<path d="M640.5 454.5H632.5V464.5H640.5V454.5Z" fill="#22252B" stroke="#22252B"/>
<path d="M587.5 398.5H578.5V406.5H587.5V398.5Z" fill="#22252B" stroke="#22252B"/>
<path d="M621.5 387.5H616.5V391.5H621.5V387.5Z" fill="#22252B" stroke="#22252B"/>
<path d="M638.854 291.354L638.918 291.289L638.955 291.207L640.5 287.808V298.5H635.5V294.707L638.854 291.354Z" fill="#22252B" stroke="#22252B"/>
<path d="M452.5 450.5H447.5V453.5H452.5V450.5Z" fill="#22252B" stroke="#22252B"/>
<path d="M461.5 450.5H453.5V458.5H461.5V450.5Z" fill="#22252B" stroke="#22252B"/>
<path d="M209.5 419.423H199.5V427.423H209.5V419.423Z" fill="#22252B" stroke="#22252B"/>
<path d="M290.5 470.003H280.5V479.003H290.5V470.003Z" fill="#22252B" stroke="#22252B"/>
<path d="M214.5 419.5H210.5V422.5H214.5V419.5Z" fill="#22252B" stroke="#22252B"/>
<path d="M76.5 430.5H66.5V437.5H76.5V430.5Z" fill="#22252B" stroke="#22252B"/>
<path d="M70.5 425.5H66.5V429.5H70.5V425.5Z" fill="#22252B" stroke="#22252B"/>
<path d="M405.5 540.423H358.5V562.423H405.5V540.423Z" fill="#22252B" stroke="#22252B"/>
<path d="M489.5 540.423H442.5V562.423H489.5V540.423Z" fill="#22252B" stroke="#22252B"/>
<path d="M395.5 244.404V214.5" stroke="#22252B"/>
<path d="M419.628 244.404V231.901H395.433" stroke="#22252B"/>
<path d="M372 258.405H413.129" stroke="#22252B"/>
<path d="M372 244.429H413.129" stroke="#22252B"/>
<path d="M602.5 259.923V283.423H597.5M597.5 283.423V264H542V283.423M597.5 283.423H542M537 259.923V283.423H542" stroke="#22252B"/>
<path d="M400 484.5H383V434H400V484.5Z" fill="#22252B"/>
<path d="M443 448.923V397H461V448.923H443Z" fill="#22252B"/>
<path d="M334 394.423H353.5V258.423H372V209.923H296V196.423M335 352.923V258.423H320M308 258.423H191V284.423H202.5V304.423H144.5V284.423H177.5V258.423H157.5V253M406 563.423V496.923M442 563.423V496.923M600 317.923V335.423H622V391.923M639.5 391.923H588V406.923H533.5M533.5 443.923H548M548 443.923H603.5M548 443.923V425.423H639.5M383 484.5H400V434H383V484.5ZM443 397V448.923H461V397H443Z" stroke="#22252B"/>
<path d="M155.5 304.5V294H190.5V304.5" stroke="#22252B"/>
<path d="M274.5 242.5H282" stroke="#22252B"/>
<path d="M590 373V392" stroke="#22252B"/>
<path d="M265 418.923V401.923H165.5V418.923H265Z" fill="#22252B"/>
<path d="M470.5 202.423H639.5M567.5 163.923H484.5M374 100.923V141.923M434.5 100.923V141.923M314.5 157.423V176.923H321M347.5 193.923H314.5V187.923M295.5 187.923V173.923M295.5 157.423V161.673M295.5 161.673V165.923M295.5 161.673H275V205.923H296M196 155.5V183.423H238V156.5M265 384V401.923M265 401.923V418.923M265 401.923H165.5V418.923H265M265 418.923H315" stroke="#22252B"/>
</g>
<path d="M526.5 332.5C538.833 332.5 563.3 332.5 564.5 332.5V302H526.5" stroke="#22252B"/>
<path d="M526.5 325H556.5V314H554.5M554.5 314H526.5M554.5 314V309H526.5" stroke="#22252B"/>
<path d="M231.5 230.5H202.5V242.5H231.5V230.5Z" stroke="#22252B"/>
<path d="M231.5 219.5H202.5V230.5H231.5V219.5Z" stroke="#22252B"/>
<path d="M231.5 207.5H202.5V219.5H231.5V207.5Z" stroke="#22252B"/>
<path d="M202.5 242.5L231.5 230.5" stroke="#22252B"/>
<path d="M202.5 231L231.5 219" stroke="#22252B"/>
<path d="M202.5 220L231.5 208" stroke="#22252B"/>
<path d="M202.5 230.5L231.5 242.5" stroke="#22252B"/>
<path d="M202.5 219L231.5 231" stroke="#22252B"/>
<path d="M202.5 208L231.5 220" stroke="#22252B"/>
<mask id="mask1_2_610" style="mask-type:alpha" maskUnits="userSpaceOnUse" x="66" y="33" width="575" height="642">
<path d="M232 206H202V244H232V206Z" fill="#101319"/>
<path fill-rule="evenodd" clip-rule="evenodd" d="M641 296.708V191.801H561.931V183.308H567.436V115.935L552.923 120.931L538.911 118.933L502.379 103.944L495.874 95.4511L482.862 100.447L476.357 106.942H467.849L461.344 100.447H435.321V78.964L446.831 67.473V33H360.256V61.9773L373.267 78.964V100.447H353.75L349.246 111.439V120.931L332.732 126.927V130.923L314.216 140.416V156.329H278.185L267.175 164.323H260.169L248.158 156.329H211.627L205.121 150.833L196.614 156.329L175.595 127.352L160.082 136.345V159.327H97.5274L83.0148 179.811V228.773H89.02L114.542 248.757V273.238L89.02 290.724H66V437.609H124.05V437.616H154.5V453.5H189.107V442.5H241.152V469.5H280V510.552H312.715V563.511H405.795V568.007H315.217V592.488H385.778V674.924H455.839V592.488H484.364V568.007H442.327V563.511H620.983V465.587H641V317.203H600.965V310.708L641 296.708ZM465 184.617H538.5V190.113H470V231.081H465V184.617ZM533.046 407.942V442.915H484.004V407.942H533.046ZM296 211.096H319.5L296 224.423V211.096ZM309.5 290.035V304.423H234.5V290.035H309.5ZM157 206.923H274.5V243.071H171V258H157V206.923ZM383 484.882H336.5V417.923H315V383.961H166.5V333.001H263.5V352.923H334V410.94H354V433.922H383V484.882ZM494.513 467.923H461.344V396.923H399.5V381.463H385V333.001H463.486V464.898H494.513V467.923ZM463.5 333.001V265.054H509.5V301.526H526.5V333.001H463.5ZM588 467.923H530.95V464.898H588V467.923ZM315.5 439H264.5V455H267L273.5 448.5H312V494H315.5V439ZM431 243.923H413V293.923H431V243.923Z" fill="#15181E"/>
<mask id="mask2_2_610" style="mask-type:alpha" maskUnits="userSpaceOnUse" x="66" y="33" width="575" height="642">
<path fill-rule="evenodd" clip-rule="evenodd" d="M641 296.708V191.801H561.931V183.308H567.436V115.935L552.923 120.931L538.911 118.933L502.379 103.944L495.874 95.4511L482.862 100.447L476.357 106.942H467.849L461.344 100.447H435.321V78.964L446.831 67.473V33H360.256V61.9773L373.267 78.964V100.447H353.75L349.246 111.439V120.931L332.732 126.927V130.923L314.216 140.416V156.329H278.185L267.175 164.323H260.169L248.158 156.329H211.627L205.121 150.833L196.614 156.329L175.595 127.352L160.082 136.345V159.327H97.5274L83.0148 179.811V228.773H89.02L114.542 248.757V273.238L89.02 290.724H66V437.609H124.05V437.616H154.5V453.5H189.107V442.5H241.152V469.5H280V510.552H312.715V563.511H405.795V568.007H315.217V592.488H385.778V674.924H455.839V592.488H484.364V568.007H442.327V563.511H620.983V465.587H641V317.203H600.965V310.708L641 296.708ZM465 184.617H538.5V190.113H470V231.081H465V184.617ZM533.046 407.942V442.915H484.004V407.942H533.046ZM296 211.096H319.5L296 224.423V211.096ZM309.5 290.035V304.423H234.5V290.035H309.5ZM157 206.923H274.5V243.071H171V258H157V206.923ZM383 484.882H336.5V417.923H315V383.961H166.5V333.001H263.5V352.923H334V410.94H354V433.922H383V484.882ZM494.513 467.923H461.344V396.923H399.5V381.463H385V333.001H463.486V464.898H494.513V467.923ZM463.5 333.001V265.054H509.5V301.526H526.5V333.001H463.5ZM588 467.923H530.95V464.898H588V467.923ZM315.5 439H264.5V455H267L273.5 448.5H312V494H315.5V439ZM431 243.923H413V293.923H431V243.923Z" fill="#15181E"/>
</mask>
<g mask="url(#mask2_2_610)">
<path d="M128.5 357.5H107.5V408.5H128.5V357.5Z" fill="#22252B" stroke="#22252B"/>
<path d="M135.5 357.5H129.5V363.5H135.5V357.5Z" fill="#22252B" stroke="#22252B"/>
<path d="M199.5 284.5H193.5V290.5H199.5V284.5Z" fill="#22252B" stroke="#22252B"/>
<path d="M247.5 243.5H242.5V248.5H247.5V243.5Z" fill="#22252B" stroke="#22252B"/>
<path d="M590.5 355.423H532.5V372.423H590.5V355.423Z" fill="#22252B" stroke="#22252B"/>
<path d="M89.5 178.5H84.5V183.5H89.5V178.5Z" fill="#22252B" stroke="#22252B"/>
<path d="M100.5 161.5H95.5V166.5H100.5V161.5Z" fill="#22252B" stroke="#22252B"/>
<path d="M243.5 278.423H233.5V288.423H243.5V278.423Z" fill="#22252B" stroke="#22252B"/>
<path d="M263.5 322.5H253.5V332.5H263.5V322.5Z" fill="#22252B" stroke="#22252B"/>
<path d="M310.5 259.5H300.5V269.5H310.5V259.5Z" fill="#22252B" stroke="#22252B"/>
<path d="M328.5 254.5H325.5V257.5H328.5V254.5Z" fill="#22252B" stroke="#22252B"/>
<path d="M474.5 333.423H464.5V351.423H474.5V333.423Z" fill="#22252B" stroke="#22252B"/>
<path d="M485.5 333.423H475.5V344.423H485.5V333.423Z" fill="#22252B" stroke="#22252B"/>
<path d="M511.5 333.423H501.5V344.423H511.5V333.423Z" fill="#22252B" stroke="#22252B"/>
<path d="M590.5 219.423H532.5V239.423H590.5V219.423Z" fill="#22252B" stroke="#22252B"/>
<path d="M640.5 250.423H623.5V259.423H640.5V250.423Z" fill="#22252B" stroke="#22252B"/>
<path d="M583.5 240.5H570.5V246.5H583.5V240.5Z" fill="#22252B" stroke="#22252B"/>
<path d="M620.5 219.5H611.5V228.5H620.5V219.5Z" fill="#22252B" stroke="#22252B"/>
<path d="M567.5 154.5H560.5V162.5H567.5V154.5Z" fill="#22252B" stroke="#22252B"/>
<path d="M567.5 149.5H564.5V152.5H567.5V149.5Z" fill="#22252B" stroke="#22252B"/>
<path d="M510.5 236.423H500.5V263.423H510.5V236.423Z" fill="#22252B" stroke="#22252B"/>
<path d="M235.5 384.5H225.5V392.5H235.5V384.5Z" fill="#22252B" stroke="#22252B"/>
<path d="M356.5 485.5H350.5V489.5H356.5V485.5Z" fill="#22252B" stroke="#22252B"/>
<path d="M461.5 459.5H456.5V464.5H461.5V459.5Z" fill="#22252B" stroke="#22252B"/>
<path d="M495.5 468.5H487.5V472.5H495.5V468.5Z" fill="#22252B" stroke="#22252B"/>
<path d="M640.5 454.5H632.5V464.5H640.5V454.5Z" fill="#22252B" stroke="#22252B"/>
<path d="M587.5 398.5H578.5V406.5H587.5V398.5Z" fill="#22252B" stroke="#22252B"/>
<path d="M621.5 387.5H616.5V391.5H621.5V387.5Z" fill="#22252B" stroke="#22252B"/>
<path d="M638.854 291.354L638.918 291.289L638.955 291.207L640.5 287.808V298.5H635.5V294.707L638.854 291.354Z" fill="#22252B" stroke="#22252B"/>
<path d="M452.5 450.5H447.5V453.5H452.5V450.5Z" fill="#22252B" stroke="#22252B"/>
<path d="M461.5 450.5H453.5V458.5H461.5V450.5Z" fill="#22252B" stroke="#22252B"/>
<path d="M209.5 419.423H199.5V427.423H209.5V419.423Z" fill="#22252B" stroke="#22252B"/>
<path d="M290.5 470.003H280.5V479.003H290.5V470.003Z" fill="#22252B" stroke="#22252B"/>
<path d="M214.5 419.5H210.5V422.5H214.5V419.5Z" fill="#22252B" stroke="#22252B"/>
<path d="M76.5 430.5H66.5V437.5H76.5V430.5Z" fill="#22252B" stroke="#22252B"/>
<path d="M70.5 425.5H66.5V429.5H70.5V425.5Z" fill="#22252B" stroke="#22252B"/>
<path d="M405.5 540.423H358.5V562.423H405.5V540.423Z" fill="#22252B" stroke="#22252B"/>
<path d="M489.5 540.423H442.5V562.423H489.5V540.423Z" fill="#22252B" stroke="#22252B"/>
<path d="M395.5 244.404V214.5" stroke="#22252B"/>
<path d="M419.628 244.404V231.901H395.433" stroke="#22252B"/>
<path d="M372 258.405H413.129" stroke="#22252B"/>
<path d="M372 244.429H413.129" stroke="#22252B"/>
<path d="M602.5 259.923V283.423H597.5M597.5 283.423V264H542V283.423M597.5 283.423H542M537 259.923V283.423H542" stroke="#22252B"/>
<path d="M400 484.5H383V434H400V484.5Z" fill="#22252B"/>
<path d="M443 448.923V397H461V448.923H443Z" fill="#22252B"/>
<path d="M334 394.423H353.5V258.423H372V209.923H296V196.423M335 352.923V258.423H320M308 258.423H191V284.423H202.5V304.423H144.5V284.423H177.5V258.423H157.5V253M406 563.423V496.923M442 563.423V496.923M600 317.923V335.423H622V391.923M639.5 391.923H588V406.923H533.5M533.5 443.923H548M548 443.923H603.5M548 443.923V425.423H639.5M383 484.5H400V434H383V484.5ZM443 397V448.923H461V397H443Z" stroke="#22252B"/>
<path d="M155.5 304.5V294H190.5V304.5" stroke="#22252B"/>
<path d="M274.5 242.5H282" stroke="#22252B"/>
<path d="M590 373V392" stroke="#22252B"/>
<path d="M265 418.923V401.923H165.5V418.923H265Z" fill="#22252B"/>
<path d="M470.5 202.423H639.5M567.5 163.923H484.5M374 100.923V141.923M434.5 100.923V141.923M314.5 157.423V176.923H321M347.5 193.923H314.5V187.923M295.5 187.923V173.923M295.5 157.423V161.673M295.5 161.673V165.923M295.5 161.673H275V205.923H296M196 155.5V183.423H238V156.5M265 384V401.923M265 401.923V418.923M265 401.923H165.5V418.923H265M265 418.923H315" stroke="#22252B"/>
</g>
<path d="M526.5 332.5C538.833 332.5 563.3 332.5 564.5 332.5V302H526.5" stroke="#22252B"/>
<path d="M526.5 325H556.5V314H554.5M554.5 314H526.5M554.5 314V309H526.5" stroke="#22252B"/>
<path d="M231.5 230.5H202.5V242.5H231.5V230.5Z" stroke="#22252B"/>
<path d="M231.5 219.5H202.5V230.5H231.5V219.5Z" stroke="#22252B"/>
<path d="M231.5 207.5H202.5V219.5H231.5V207.5Z" stroke="#22252B"/>
<path d="M202.5 242.5L231.5 230.5" stroke="#22252B"/>
<path d="M202.5 231L231.5 219" stroke="#22252B"/>
<path d="M202.5 220L231.5 208" stroke="#22252B"/>
<path d="M202.5 230.5L231.5 242.5" stroke="#22252B"/>
<path d="M202.5 219L231.5 231" stroke="#22252B"/>
<path d="M202.5 208L231.5 220" stroke="#22252B"/>
</mask>
<g mask="url(#mask1_2_610)">
<path d="M433.5 266.999H448.25H463M512 266.999H533.5M514.5 266.999H640.5M375 258H412.5M338 258H352.5M310.5 258H319.5M263.5 331.5V318.75V306M263.5 288.499V275.75V260.5M192.5 441V423.25V385.5" stroke="#F44348" stroke-width="3" stroke-linecap="round"/>
<path d="M432.5 267.5H643.5L663 86L373 -8L-14 86V453H192V379.5L194 353L263.5 333V258H422.5V267.5H432.5Z" fill="url(#paint0_linear_2_610)" fill-opacity="0.26"/>
<path d="M314 495.5V509M336 484H316.5M460.5 450.5H385.5M530.5 466.5H497M620.5 466.5H590.5" stroke="#24E8CC" stroke-width="3" stroke-linecap="round"/>
<path d="M314 509.5L312.5 514.5L308.5 682H625V466H463.5V451H382L373.5 462.5L353.5 484H314V509.5Z" fill="url(#paint1_linear_2_610)" fill-opacity="0.24"/>
</g>
<path d="M495.587 520L496.073 518.507H498.435L498.921 520H500.404L498.147 513.455H496.364L494.104 520H495.587ZM496.425 517.427L497.23 514.95H497.281L498.086 517.427H496.425ZM503.388 515.091H502.465V513.915H501.103V515.091H500.432V516.114H501.103V518.67C501.097 519.632 501.752 520.109 502.74 520.067C503.091 520.054 503.34 519.984 503.478 519.939L503.264 518.926C503.197 518.939 503.053 518.971 502.925 518.971C502.653 518.971 502.465 518.869 502.465 518.491V516.114H503.388V515.091ZM506.805 515.091H505.882V513.915H504.52V515.091H503.849V516.114H504.52V518.67C504.514 519.632 505.169 520.109 506.157 520.067C506.508 520.054 506.757 519.984 506.895 519.939L506.681 518.926C506.614 518.939 506.47 518.971 506.342 518.971C506.07 518.971 505.882 518.869 505.882 518.491V516.114H506.805V515.091ZM509.011 520.093C509.737 520.093 510.206 519.776 510.446 519.319H510.485V520H511.776V516.689C511.776 515.519 510.785 515.027 509.692 515.027C508.516 515.027 507.742 515.589 507.554 516.484L508.813 516.587C508.906 516.261 509.197 516.021 509.686 516.021C510.149 516.021 510.414 516.254 510.414 516.657V516.676C510.414 516.993 510.079 517.034 509.225 517.117C508.254 517.207 507.381 517.533 507.381 518.629C507.381 519.6 508.075 520.093 509.011 520.093ZM509.401 519.153C508.982 519.153 508.682 518.958 508.682 518.584C508.682 518.201 508.998 518.012 509.478 517.945C509.775 517.903 510.261 517.833 510.424 517.724V518.245C510.424 518.76 509.999 519.153 509.401 519.153ZM514.969 520.096C516.276 520.096 517.098 519.329 517.162 518.201H515.877C515.797 518.725 515.452 519.019 514.985 519.019C514.349 519.019 513.937 518.485 513.937 517.545C513.937 516.619 514.352 516.088 514.985 516.088C515.484 516.088 515.803 516.417 515.877 516.906H517.162C517.104 515.772 516.244 515.027 514.963 515.027C513.473 515.027 512.553 516.059 512.553 517.565C512.553 519.057 513.457 520.096 514.969 520.096ZM517.952 520H519.314V518.44L519.681 518.022L521.02 520H522.615L520.701 517.216L522.523 515.091H520.96L519.387 516.954H519.314V513.455H517.952V520ZM525.145 520.096C526.359 520.096 527.177 519.505 527.369 518.594L526.11 518.511C525.972 518.885 525.621 519.08 525.167 519.08C524.486 519.08 524.055 518.629 524.055 517.897V517.894H527.398V517.52C527.398 515.852 526.388 515.027 525.09 515.027C523.646 515.027 522.709 516.053 522.709 517.568C522.709 519.124 523.633 520.096 525.145 520.096ZM524.055 517.05C524.084 516.491 524.509 516.043 525.113 516.043C525.704 516.043 526.113 516.465 526.116 517.05H524.055ZM528.205 520H529.567V517.223C529.567 516.619 530.008 516.203 530.609 516.203C530.797 516.203 531.056 516.235 531.184 516.277V515.069C531.063 515.04 530.893 515.021 530.756 515.021C530.206 515.021 529.755 515.34 529.576 515.947H529.525V515.091H528.205V520ZM535.891 516.491C535.77 515.586 535.041 515.027 533.801 515.027C532.545 515.027 531.717 515.609 531.721 516.555C531.717 517.29 532.181 517.766 533.14 517.958L533.99 518.127C534.418 518.213 534.613 518.37 534.619 518.616C534.613 518.907 534.297 519.115 533.82 519.115C533.335 519.115 533.012 518.907 532.929 518.507L531.59 518.578C531.717 519.517 532.516 520.096 533.817 520.096C535.089 520.096 536 519.447 536.003 518.479C536 517.769 535.537 517.344 534.584 517.149L533.696 516.97C533.239 516.871 533.069 516.714 533.073 516.478C533.069 516.184 533.402 515.992 533.824 515.992C534.297 515.992 534.578 516.251 534.645 516.567L535.891 516.491ZM542.358 515.337H543.684C543.665 514.17 542.706 513.365 541.249 513.365C539.814 513.365 538.762 514.158 538.769 515.347C538.766 516.312 539.446 516.865 540.552 517.13L541.265 517.309C541.978 517.482 542.374 517.686 542.377 518.127C542.374 518.607 541.92 518.933 541.217 518.933C540.498 518.933 539.98 518.6 539.935 517.945H538.596C538.631 519.361 539.645 520.093 541.233 520.093C542.831 520.093 543.771 519.329 543.774 518.13C543.771 517.04 542.949 516.462 541.811 516.206L541.223 516.066C540.655 515.935 540.178 515.724 540.188 515.254C540.188 514.832 540.562 514.522 541.239 514.522C541.901 514.522 542.307 514.822 542.358 515.337ZM544.598 520H545.96V515.091H544.598V520ZM545.282 514.458C545.688 514.458 546.02 514.148 546.02 513.768C546.02 513.391 545.688 513.081 545.282 513.081C544.879 513.081 544.547 513.391 544.547 513.768C544.547 514.148 544.879 514.458 545.282 514.458ZM548.778 520.08C549.571 520.08 549.983 519.623 550.172 519.214H550.229V520H551.572V513.455H550.213V515.915H550.172C549.989 515.516 549.596 515.027 548.775 515.027C547.698 515.027 546.787 515.864 546.787 517.552C546.787 519.195 547.66 520.08 548.778 520.08ZM549.21 518.996C548.542 518.996 548.177 518.402 548.177 517.545C548.177 516.695 548.535 516.11 549.21 516.11C549.871 516.11 550.242 516.67 550.242 517.545C550.242 518.421 549.865 518.996 549.21 518.996ZM554.847 520.096C556.062 520.096 556.88 519.505 557.072 518.594L555.812 518.511C555.675 518.885 555.323 519.08 554.87 519.08C554.189 519.08 553.757 518.629 553.757 517.897V517.894H557.1V517.52C557.1 515.852 556.09 515.027 554.793 515.027C553.348 515.027 552.412 516.053 552.412 517.568C552.412 519.124 553.335 520.096 554.847 520.096ZM553.757 517.05C553.786 516.491 554.211 516.043 554.815 516.043C555.406 516.043 555.816 516.465 555.819 517.05H553.757ZM563.486 515.337H564.813C564.793 514.17 563.835 513.365 562.377 513.365C560.942 513.365 559.891 514.158 559.897 515.347C559.894 516.312 560.575 516.865 561.68 517.13L562.393 517.309C563.106 517.482 563.502 517.686 563.505 518.127C563.502 518.607 563.048 518.933 562.345 518.933C561.626 518.933 561.108 518.6 561.064 517.945H559.724C559.76 519.361 560.773 520.093 562.361 520.093C563.959 520.093 564.899 519.329 564.902 518.13C564.899 517.04 564.077 516.462 562.94 516.206L562.352 516.066C561.783 515.935 561.307 515.724 561.316 515.254C561.316 514.832 561.69 514.522 562.368 514.522C563.029 514.522 563.435 514.822 563.486 515.337ZM565.726 521.841H567.088V519.214H567.129C567.318 519.623 567.73 520.08 568.523 520.08C569.641 520.08 570.514 519.195 570.514 517.552C570.514 515.864 569.603 515.027 568.526 515.027C567.705 515.027 567.312 515.516 567.129 515.915H567.069V515.091H565.726V521.841ZM567.059 517.545C567.059 516.67 567.43 516.11 568.091 516.11C568.766 516.11 569.124 516.695 569.124 517.545C569.124 518.402 568.759 518.996 568.091 518.996C567.436 518.996 567.059 518.421 567.059 517.545ZM572.74 520.093C573.466 520.093 573.936 519.776 574.175 519.319H574.214V520H575.505V516.689C575.505 515.519 574.514 515.027 573.421 515.027C572.245 515.027 571.472 515.589 571.283 516.484L572.542 516.587C572.635 516.261 572.926 516.021 573.415 516.021C573.878 516.021 574.144 516.254 574.144 516.657V516.676C574.144 516.993 573.808 517.034 572.955 517.117C571.983 517.207 571.11 517.533 571.11 518.629C571.11 519.6 571.804 520.093 572.74 520.093ZM573.13 519.153C572.712 519.153 572.411 518.958 572.411 518.584C572.411 518.201 572.728 518.012 573.207 517.945C573.504 517.903 573.99 517.833 574.153 517.724V518.245C574.153 518.76 573.728 519.153 573.13 519.153ZM577.449 520H578.887L579.731 516.913H579.791L580.635 520H582.077L583.409 515.091H582.035L581.287 518.37H581.246L580.44 515.091H579.088L578.296 518.389H578.251L577.49 515.091H576.113L577.449 520ZM585.416 517.162C585.419 516.529 585.796 516.158 586.346 516.158C586.893 516.158 587.222 516.516 587.219 517.117V520H588.58V516.874C588.58 515.73 587.909 515.027 586.886 515.027C586.158 515.027 585.63 515.385 585.41 515.957H585.352V515.091H584.055V520H585.416V517.162Z" fill="#7F838B"/>
<path d="M363.916 418.455V425H365.259V420.724H365.313L367.007 424.968H367.921L369.615 420.74H369.669V425H371.012V418.455H369.305L367.502 422.852H367.426L365.623 418.455H363.916ZM372.045 425H373.407V420.091H372.045V425ZM372.729 419.458C373.135 419.458 373.467 419.148 373.467 418.768C373.467 418.391 373.135 418.081 372.729 418.081C372.326 418.081 371.994 418.391 371.994 418.768C371.994 419.148 372.326 419.458 372.729 419.458ZM376.225 425.08C377.018 425.08 377.43 424.623 377.619 424.214H377.676V425H379.019V418.455H377.66V420.915H377.619C377.437 420.516 377.043 420.027 376.222 420.027C375.145 420.027 374.234 420.864 374.234 422.552C374.234 424.195 375.107 425.08 376.225 425.08ZM376.657 423.996C375.989 423.996 375.624 423.402 375.624 422.545C375.624 421.695 375.982 421.11 376.657 421.11C377.318 421.11 377.689 421.67 377.689 422.545C377.689 423.421 377.312 423.996 376.657 423.996ZM382.085 425H384.881C386.351 425 387.134 424.233 387.134 423.191C387.134 422.223 386.441 421.638 385.696 421.603V421.539C386.377 421.385 386.879 420.903 386.879 420.132C386.879 419.151 386.15 418.455 384.705 418.455H382.085V425ZM383.468 423.869V422.13H384.629C385.293 422.13 385.706 422.513 385.706 423.054C385.706 423.546 385.37 423.869 384.597 423.869H383.468ZM383.468 421.194V419.573H384.52C385.134 419.573 385.482 419.89 385.482 420.363C385.482 420.88 385.06 421.194 384.494 421.194H383.468ZM389.29 418.455H387.928V425H389.29V418.455ZM393.447 422.91C393.451 423.568 393 423.913 392.511 423.913C391.996 423.913 391.664 423.552 391.661 422.974V420.091H390.299V423.217C390.303 424.364 390.974 425.064 391.961 425.064C392.7 425.064 393.23 424.684 393.451 424.108H393.502V425H394.809V420.091H393.447V422.91ZM398.054 425.096C399.269 425.096 400.087 424.505 400.279 423.594L399.019 423.511C398.882 423.885 398.53 424.08 398.077 424.08C397.396 424.08 396.964 423.629 396.964 422.897V422.894H400.307V422.52C400.307 420.852 399.297 420.027 398 420.027C396.555 420.027 395.619 421.053 395.619 422.568C395.619 424.124 396.542 425.096 398.054 425.096ZM396.964 422.05C396.993 421.491 397.418 421.043 398.022 421.043C398.613 421.043 399.023 421.465 399.026 422.05H396.964Z" fill="#7F838B"/>
<path d="M271.884 463H274.68C276.15 463 276.933 462.233 276.933 461.191C276.933 460.223 276.24 459.638 275.495 459.603V459.539C276.176 459.385 276.678 458.903 276.678 458.132C276.678 457.151 275.949 456.455 274.504 456.455H271.884V463ZM273.268 461.869V460.13H274.428C275.092 460.13 275.505 460.513 275.505 461.054C275.505 461.546 275.169 461.869 274.396 461.869H273.268ZM273.268 459.194V457.573H274.319C274.933 457.573 275.281 457.89 275.281 458.363C275.281 458.88 274.859 459.194 274.293 459.194H273.268ZM284.095 458.57H285.501C285.322 457.276 284.181 456.365 282.702 456.365C280.973 456.365 279.64 457.612 279.64 459.734C279.64 461.805 280.886 463.089 282.73 463.089C284.383 463.089 285.562 462.044 285.562 460.322V459.497H282.823V460.539H284.229C284.21 461.351 283.657 461.865 282.737 461.865C281.698 461.865 281.043 461.089 281.043 459.721C281.043 458.359 281.724 457.589 282.724 457.589C283.437 457.589 283.919 457.957 284.095 458.57ZM287.895 463.093C288.62 463.093 289.09 462.776 289.33 462.319H289.368V463H290.659V459.689C290.659 458.519 289.669 458.027 288.576 458.027C287.399 458.027 286.626 458.589 286.437 459.484L287.697 459.587C287.789 459.261 288.08 459.021 288.569 459.021C289.033 459.021 289.298 459.254 289.298 459.657V459.676C289.298 459.993 288.962 460.034 288.109 460.117C287.137 460.207 286.265 460.533 286.265 461.629C286.265 462.6 286.958 463.093 287.895 463.093ZM288.285 462.153C287.866 462.153 287.566 461.958 287.566 461.584C287.566 461.201 287.882 461.012 288.361 460.945C288.659 460.903 289.144 460.833 289.307 460.724V461.245C289.307 461.76 288.882 462.153 288.285 462.153ZM291.635 463H292.996V460.223C292.996 459.619 293.437 459.203 294.038 459.203C294.227 459.203 294.486 459.235 294.613 459.277V458.069C294.492 458.04 294.323 458.021 294.185 458.021C293.635 458.021 293.185 458.34 293.006 458.947H292.955V458.091H291.635V463ZM296.496 463.093C297.221 463.093 297.691 462.776 297.931 462.319H297.969V463H299.26V459.689C299.26 458.519 298.269 458.027 297.176 458.027C296 458.027 295.227 458.589 295.038 459.484L296.297 459.587C296.39 459.261 296.681 459.021 297.17 459.021C297.633 459.021 297.899 459.254 297.899 459.657V459.676C297.899 459.993 297.563 460.034 296.71 460.117C295.738 460.207 294.866 460.533 294.866 461.629C294.866 462.6 295.559 463.093 296.496 463.093ZM296.885 462.153C296.467 462.153 296.166 461.958 296.166 461.584C296.166 461.201 296.483 461.012 296.962 460.945C297.259 460.903 297.745 460.833 297.908 460.724V461.245C297.908 461.76 297.483 462.153 296.885 462.153ZM302.447 464.943C303.85 464.943 304.847 464.304 304.847 463.048V458.091H303.495V458.915H303.444C303.262 458.516 302.862 458.027 302.041 458.027C300.964 458.027 300.053 458.864 300.053 460.536C300.053 462.169 300.938 462.93 302.044 462.93C302.827 462.93 303.265 462.537 303.444 462.131H303.502V463.029C303.502 463.703 303.07 463.965 302.479 463.965C301.878 463.965 301.574 463.703 301.463 463.406L300.203 463.575C300.366 464.349 301.124 464.943 302.447 464.943ZM302.476 461.907C301.808 461.907 301.443 461.376 301.443 460.529C301.443 459.695 301.801 459.11 302.476 459.11C303.137 459.11 303.508 459.67 303.508 460.529C303.508 461.396 303.131 461.907 302.476 461.907ZM308.087 463.096C309.301 463.096 310.12 462.505 310.311 461.594L309.052 461.511C308.915 461.885 308.563 462.08 308.109 462.08C307.429 462.08 306.997 461.629 306.997 460.897V460.894H310.34V460.52C310.34 458.852 309.33 458.027 308.033 458.027C306.588 458.027 305.652 459.053 305.652 460.568C305.652 462.124 306.575 463.096 308.087 463.096ZM306.997 460.05C307.026 459.491 307.451 459.043 308.055 459.043C308.646 459.043 309.055 459.465 309.058 460.05H306.997Z" fill="#7F838B"/>
<path d="M228.467 413H231.263C232.733 413 233.516 412.233 233.516 411.191C233.516 410.223 232.823 409.638 232.078 409.603V409.539C232.759 409.385 233.261 408.903 233.261 408.132C233.261 407.151 232.532 406.455 231.087 406.455H228.467V413ZM229.851 411.869V410.13H231.011C231.675 410.13 232.088 410.513 232.088 411.054C232.088 411.546 231.752 411.869 230.979 411.869H229.851ZM229.851 409.194V407.573H230.902C231.516 407.573 231.864 407.89 231.864 408.363C231.864 408.88 231.442 409.194 230.876 409.194H229.851ZM240.678 408.57H242.084C241.905 407.276 240.764 406.365 239.285 406.365C237.556 406.365 236.223 407.612 236.223 409.734C236.223 411.805 237.469 413.089 239.313 413.089C240.966 413.089 242.145 412.044 242.145 410.322V409.497H239.406V410.539H240.812C240.793 411.351 240.24 411.865 239.32 411.865C238.281 411.865 237.626 411.089 237.626 409.721C237.626 408.359 238.307 407.589 239.307 407.589C240.02 407.589 240.502 407.957 240.678 408.57ZM243.078 413H244.439V410.223C244.439 409.619 244.881 409.203 245.481 409.203C245.67 409.203 245.929 409.235 246.057 409.277V408.069C245.935 408.04 245.766 408.021 245.628 408.021C245.079 408.021 244.628 408.34 244.449 408.947H244.398V408.091H243.078V413ZM248.688 413.096C249.903 413.096 250.721 412.505 250.913 411.594L249.654 411.511C249.516 411.885 249.165 412.08 248.711 412.08C248.03 412.08 247.598 411.629 247.598 410.897V410.894H250.942V410.52C250.942 408.852 249.932 408.027 248.634 408.027C247.189 408.027 246.253 409.053 246.253 410.568C246.253 412.124 247.177 413.096 248.688 413.096ZM247.598 410.05C247.627 409.491 248.052 409.043 248.656 409.043C249.248 409.043 249.657 409.465 249.66 410.05H247.598ZM253.986 413.096C255.201 413.096 256.019 412.505 256.211 411.594L254.951 411.511C254.814 411.885 254.462 412.08 254.009 412.08C253.328 412.08 252.896 411.629 252.896 410.897V410.894H256.239V410.52C256.239 408.852 255.229 408.027 253.932 408.027C252.487 408.027 251.551 409.053 251.551 410.568C251.551 412.124 252.474 413.096 253.986 413.096ZM252.896 410.05C252.925 409.491 253.35 409.043 253.954 409.043C254.546 409.043 254.955 409.465 254.958 410.05H252.896ZM258.408 410.162C258.412 409.529 258.789 409.158 259.338 409.158C259.885 409.158 260.214 409.516 260.211 410.117V413H261.572V409.874C261.572 408.73 260.901 408.027 259.879 408.027C259.15 408.027 258.623 408.385 258.402 408.957H258.344V408.091H257.047V413H258.408V410.162Z" fill="#7F838B"/>
<path d="M271.598 323H274.395C275.865 323 276.648 322.233 276.648 321.191C276.648 320.223 275.954 319.638 275.21 319.603V319.539C275.89 319.385 276.392 318.903 276.392 318.132C276.392 317.151 275.663 316.455 274.219 316.455H271.598V323ZM272.982 321.869V320.13H274.142C274.807 320.13 275.219 320.513 275.219 321.054C275.219 321.546 274.884 321.869 274.11 321.869H272.982ZM272.982 319.194V317.573H274.033C274.647 317.573 274.995 317.89 274.995 318.363C274.995 318.88 274.573 319.194 274.008 319.194H272.982ZM285.484 319.727C285.484 317.586 284.155 316.365 282.419 316.365C280.674 316.365 279.354 317.586 279.354 319.727C279.354 321.859 280.674 323.089 282.419 323.089C284.155 323.089 285.484 321.869 285.484 319.727ZM284.081 319.727C284.081 321.114 283.423 321.865 282.419 321.865C281.412 321.865 280.757 321.114 280.757 319.727C280.757 318.34 281.412 317.589 282.419 317.589C283.423 317.589 284.081 318.34 284.081 319.727ZM286.403 323H287.764V320.223C287.764 319.619 288.205 319.203 288.806 319.203C288.995 319.203 289.254 319.235 289.381 319.277V318.069C289.26 318.04 289.091 318.021 288.953 318.021C288.403 318.021 287.953 318.34 287.774 318.947H287.723V318.091H286.403V323ZM291.264 323.093C291.989 323.093 292.459 322.776 292.699 322.319H292.737V323H294.028V319.689C294.028 318.519 293.037 318.027 291.944 318.027C290.768 318.027 289.995 318.589 289.806 319.484L291.065 319.587C291.158 319.261 291.449 319.021 291.938 319.021C292.401 319.021 292.667 319.254 292.667 319.657V319.676C292.667 319.993 292.331 320.034 291.478 320.117C290.506 320.207 289.634 320.533 289.634 321.629C289.634 322.6 290.327 323.093 291.264 323.093ZM291.653 322.153C291.235 322.153 290.934 321.958 290.934 321.584C290.934 321.201 291.251 321.012 291.73 320.945C292.027 320.903 292.513 320.833 292.676 320.724V321.245C292.676 321.76 292.251 322.153 291.653 322.153ZM296.365 320.162C296.368 319.529 296.745 319.158 297.295 319.158C297.841 319.158 298.171 319.516 298.167 320.117V323H299.529V319.874C299.529 318.73 298.858 318.027 297.835 318.027C297.106 318.027 296.579 318.385 296.358 318.957H296.301V318.091H295.003V323H296.365V320.162ZM302.733 324.943C304.136 324.943 305.133 324.304 305.133 323.048V318.091H303.781V318.915H303.73C303.548 318.516 303.148 318.027 302.327 318.027C301.25 318.027 300.339 318.864 300.339 320.536C300.339 322.169 301.224 322.93 302.33 322.93C303.113 322.93 303.551 322.537 303.73 322.131H303.787V323.029C303.787 323.703 303.356 323.965 302.765 323.965C302.164 323.965 301.86 323.703 301.748 323.406L300.489 323.575C300.652 324.349 301.409 324.943 302.733 324.943ZM302.761 321.907C302.093 321.907 301.729 321.376 301.729 320.529C301.729 319.695 302.087 319.11 302.761 319.11C303.423 319.11 303.794 319.67 303.794 320.529C303.794 321.396 303.417 321.907 302.761 321.907ZM308.373 323.096C309.587 323.096 310.405 322.505 310.597 321.594L309.338 321.511C309.2 321.885 308.849 322.08 308.395 322.08C307.714 322.08 307.283 321.629 307.283 320.897V320.894H310.626V320.52C310.626 318.852 309.616 318.027 308.318 318.027C306.874 318.027 305.937 319.053 305.937 320.568C305.937 322.124 306.861 323.096 308.373 323.096ZM307.283 320.05C307.311 319.491 307.737 319.043 308.341 319.043C308.932 319.043 309.341 319.465 309.344 320.05H307.283Z" fill="#7F838B"/>
<path d="M340.733 365H343.53C345 365 345.783 364.233 345.783 363.191C345.783 362.223 345.089 361.638 344.345 361.603V361.539C345.026 361.385 345.527 360.903 345.527 360.132C345.527 359.151 344.799 358.455 343.354 358.455H340.733V365ZM342.117 363.869V362.13H343.277C343.942 362.13 344.354 362.513 344.354 363.054C344.354 363.546 344.019 363.869 343.245 363.869H342.117ZM342.117 361.194V359.573H343.169C343.782 359.573 344.131 359.89 344.131 360.363C344.131 360.88 343.709 361.194 343.143 361.194H342.117ZM348.355 359.596H350.359V365H351.727V359.596H353.731V358.455H348.355V359.596ZM356.99 362.91C356.993 363.568 356.542 363.913 356.053 363.913C355.539 363.913 355.206 363.552 355.203 362.974V360.091H353.842V363.217C353.845 364.364 354.516 365.064 355.504 365.064C356.242 365.064 356.772 364.684 356.993 364.108H357.044V365H358.351V360.091H356.99V362.91ZM359.385 365H360.727V364.214H360.788C360.977 364.623 361.389 365.08 362.181 365.08C363.3 365.08 364.173 364.195 364.173 362.552C364.173 360.864 363.262 360.027 362.185 360.027C361.363 360.027 360.97 360.516 360.788 360.915H360.746V358.455H359.385V365ZM360.718 362.545C360.718 361.67 361.088 361.11 361.75 361.11C362.424 361.11 362.782 361.695 362.782 362.545C362.782 363.402 362.418 363.996 361.75 363.996C361.095 363.996 360.718 363.421 360.718 362.545ZM367.237 365.096C368.452 365.096 369.27 364.505 369.462 363.594L368.202 363.511C368.065 363.885 367.713 364.08 367.26 364.08C366.579 364.08 366.147 363.629 366.147 362.897V362.894H369.49V362.52C369.49 360.852 368.48 360.027 367.183 360.027C365.738 360.027 364.802 361.053 364.802 362.568C364.802 364.124 365.726 365.096 367.237 365.096ZM366.147 362.05C366.176 361.491 366.601 361.043 367.205 361.043C367.797 361.043 368.206 361.465 368.209 362.05H366.147Z" fill="#7F838B"/>
<path d="M411.339 317.455V324H412.681V319.724H412.735L414.429 323.968H415.343L417.037 319.74H417.092V324H418.434V317.455H416.727L414.925 321.852H414.848L413.045 317.455H411.339ZM419.467 324H420.829V319.091H419.467V324ZM420.151 318.458C420.557 318.458 420.89 318.148 420.89 317.768C420.89 317.391 420.557 317.081 420.151 317.081C419.749 317.081 419.416 317.391 419.416 317.768C419.416 318.148 419.749 318.458 420.151 318.458ZM423.648 324.08C424.44 324.08 424.852 323.623 425.041 323.214H425.099V324H426.441V317.455H425.083V319.915H425.041C424.859 319.516 424.466 319.027 423.644 319.027C422.567 319.027 421.656 319.864 421.656 321.552C421.656 323.195 422.529 324.08 423.648 324.08ZM424.079 322.996C423.411 322.996 423.047 322.402 423.047 321.545C423.047 320.695 423.405 320.11 424.079 320.11C424.741 320.11 425.111 320.67 425.111 321.545C425.111 322.421 424.734 322.996 424.079 322.996ZM429.507 324H430.891V321.878H432.054C433.559 321.878 434.435 320.98 434.435 319.673C434.435 318.372 433.575 317.455 432.089 317.455H429.507V324ZM430.891 320.769V318.586H431.824C432.623 318.586 433.01 319.021 433.01 319.673C433.01 320.321 432.623 320.769 431.83 320.769H430.891ZM436.495 324.093C437.221 324.093 437.691 323.776 437.93 323.319H437.969V324H439.26V320.689C439.26 319.519 438.269 319.027 437.176 319.027C436 319.027 435.227 319.589 435.038 320.484L436.297 320.587C436.39 320.261 436.681 320.021 437.17 320.021C437.633 320.021 437.899 320.254 437.899 320.657V320.676C437.899 320.993 437.563 321.034 436.71 321.117C435.738 321.207 434.865 321.533 434.865 322.629C434.865 323.6 435.559 324.093 436.495 324.093ZM436.885 323.153C436.467 323.153 436.166 322.958 436.166 322.584C436.166 322.201 436.483 322.012 436.962 321.945C437.259 321.903 437.745 321.833 437.908 321.724V322.245C437.908 322.76 437.483 323.153 436.885 323.153ZM441.597 317.455H440.235V324H441.597V317.455ZM443.968 317.455H442.606V324H443.968V317.455ZM447.215 324.096C448.429 324.096 449.247 323.505 449.439 322.594L448.18 322.511C448.043 322.885 447.691 323.08 447.237 323.08C446.556 323.08 446.125 322.629 446.125 321.897V321.894H449.468V321.52C449.468 319.852 448.458 319.027 447.16 319.027C445.716 319.027 444.779 320.053 444.779 321.568C444.779 323.124 445.703 324.096 447.215 324.096ZM446.125 321.05C446.154 320.491 446.579 320.043 447.183 320.043C447.774 320.043 448.183 320.465 448.186 321.05H446.125ZM452.887 319.091H451.963V317.915H450.601V319.091H449.93V320.114H450.601V322.67C450.595 323.632 451.25 324.109 452.238 324.067C452.589 324.054 452.839 323.984 452.976 323.939L452.762 322.926C452.695 322.939 452.551 322.971 452.423 322.971C452.152 322.971 451.963 322.869 451.963 322.491V320.114H452.887V319.091Z" fill="#7F838B"/>
<path d="M363.97 272.455V279H365.312V274.724H365.366L367.06 278.968H367.974L369.668 274.74H369.722V279H371.065V272.455H369.358L367.555 276.852H367.479L365.676 272.455H363.97ZM372.098 279H373.46V274.091H372.098V279ZM372.782 273.458C373.188 273.458 373.521 273.148 373.521 272.768C373.521 272.391 373.188 272.081 372.782 272.081C372.38 272.081 372.047 272.391 372.047 272.768C372.047 273.148 372.38 273.458 372.782 273.458ZM376.278 279.08C377.071 279.08 377.483 278.623 377.672 278.214H377.729V279H379.072V272.455H377.713V274.915H377.672C377.49 274.516 377.097 274.027 376.275 274.027C375.198 274.027 374.287 274.864 374.287 276.552C374.287 278.195 375.16 279.08 376.278 279.08ZM376.71 277.996C376.042 277.996 375.678 277.402 375.678 276.545C375.678 275.695 376.036 275.11 376.71 275.11C377.371 275.11 377.742 275.67 377.742 276.545C377.742 277.421 377.365 277.996 376.71 277.996ZM382.138 279H384.934C386.404 279 387.187 278.233 387.187 277.191C387.187 276.223 386.494 275.638 385.749 275.603V275.539C386.43 275.385 386.932 274.903 386.932 274.132C386.932 273.151 386.203 272.455 384.758 272.455H382.138V279ZM383.522 277.869V276.13H384.682C385.347 276.13 385.759 276.513 385.759 277.054C385.759 277.546 385.423 277.869 384.65 277.869H383.522ZM383.522 275.194V273.573H384.573C385.187 273.573 385.535 273.89 385.535 274.363C385.535 274.88 385.113 275.194 384.548 275.194H383.522ZM390.199 279.096C391.689 279.096 392.616 278.076 392.616 276.565C392.616 275.043 391.689 274.027 390.199 274.027C388.71 274.027 387.783 275.043 387.783 276.565C387.783 278.076 388.71 279.096 390.199 279.096ZM390.206 278.041C389.519 278.041 389.167 277.412 389.167 276.555C389.167 275.699 389.519 275.066 390.206 275.066C390.88 275.066 391.232 275.699 391.232 276.555C391.232 277.412 390.88 278.041 390.206 278.041ZM393.42 279H394.781V274.091H393.42V279ZM394.104 273.458C394.51 273.458 394.842 273.148 394.842 272.768C394.842 272.391 394.51 272.081 394.104 272.081C393.701 272.081 393.369 272.391 393.369 272.768C393.369 273.148 393.701 273.458 394.104 273.458ZM397.153 272.455H395.791V279H397.153V272.455ZM400.399 279.096C401.614 279.096 402.432 278.505 402.624 277.594L401.365 277.511C401.227 277.885 400.876 278.08 400.422 278.08C399.741 278.08 399.31 277.629 399.31 276.897V276.894H402.653V276.52C402.653 274.852 401.643 274.027 400.345 274.027C398.9 274.027 397.964 275.053 397.964 276.568C397.964 278.124 398.888 279.096 400.399 279.096ZM399.31 276.05C399.338 275.491 399.763 275.043 400.367 275.043C400.959 275.043 401.368 275.465 401.371 276.05H399.31ZM403.46 279H404.822V276.223C404.822 275.619 405.263 275.203 405.863 275.203C406.052 275.203 406.311 275.235 406.439 275.277V274.069C406.317 274.04 406.148 274.021 406.01 274.021C405.461 274.021 405.01 274.34 404.831 274.947H404.78V274.091H403.46V279Z" fill="#7F838B"/>
<path d="M322.733 232H325.53C327 232 327.783 231.233 327.783 230.191C327.783 229.223 327.089 228.638 326.345 228.603V228.539C327.025 228.385 327.527 227.903 327.527 227.132C327.527 226.151 326.799 225.455 325.354 225.455H322.733V232ZM324.117 230.869V229.13H325.277C325.942 229.13 326.354 229.513 326.354 230.054C326.354 230.546 326.019 230.869 325.245 230.869H324.117ZM324.117 228.194V226.573H325.169C325.782 226.573 326.131 226.89 326.131 227.363C326.131 227.88 325.709 228.194 325.143 228.194H324.117ZM330.604 232H331.988V230.14L332.669 229.309L334.462 232H336.118L333.66 228.385L336.089 225.455H334.43L332.075 228.341H331.988V225.455H330.604V232ZM337.011 232H338.372V227.091H337.011V232ZM337.695 226.458C338.1 226.458 338.433 226.148 338.433 225.768C338.433 225.391 338.1 225.081 337.695 225.081C337.292 225.081 336.959 225.391 336.959 225.768C336.959 226.148 337.292 226.458 337.695 226.458ZM341.993 227.091H341.069V225.915H339.708V227.091H339.037V228.114H339.708V230.67C339.701 231.632 340.356 232.109 341.344 232.067C341.696 232.054 341.945 231.984 342.082 231.939L341.868 230.926C341.801 230.939 341.657 230.971 341.529 230.971C341.258 230.971 341.069 230.869 341.069 230.491V228.114H341.993V227.091ZM344.964 232.096C346.271 232.096 347.093 231.329 347.157 230.201H345.872C345.792 230.725 345.447 231.019 344.98 231.019C344.344 231.019 343.932 230.485 343.932 229.545C343.932 228.619 344.347 228.088 344.98 228.088C345.479 228.088 345.798 228.417 345.872 228.906H347.157C347.099 227.772 346.239 227.027 344.958 227.027C343.468 227.027 342.548 228.059 342.548 229.565C342.548 231.057 343.452 232.096 344.964 232.096ZM349.309 229.162C349.312 228.529 349.699 228.158 350.255 228.158C350.808 228.158 351.134 228.513 351.13 229.117V232H352.492V228.874C352.495 227.724 351.818 227.027 350.795 227.027C350.05 227.027 349.552 227.379 349.328 227.957H349.27V225.455H347.947V232H349.309V229.162ZM355.72 232.096C356.934 232.096 357.752 231.505 357.944 230.594L356.685 230.511C356.547 230.885 356.196 231.08 355.742 231.08C355.061 231.08 354.63 230.629 354.63 229.897V229.894H357.973V229.52C357.973 227.852 356.963 227.027 355.665 227.027C354.221 227.027 353.284 228.053 353.284 229.568C353.284 231.124 354.208 232.096 355.72 232.096ZM354.63 229.05C354.659 228.491 355.084 228.043 355.688 228.043C356.279 228.043 356.688 228.465 356.691 229.05H354.63ZM360.142 229.162C360.145 228.529 360.522 228.158 361.072 228.158C361.618 228.158 361.948 228.516 361.944 229.117V232H363.306V228.874C363.306 227.73 362.635 227.027 361.612 227.027C360.883 227.027 360.356 227.385 360.135 227.957H360.078V227.091H358.78V232H360.142V229.162Z" fill="#7F838B"/>
<path d="M213.335 254H216.131C217.602 254 218.385 253.233 218.385 252.191C218.385 251.223 217.691 250.638 216.946 250.603V250.539C217.627 250.385 218.129 249.903 218.129 249.132C218.129 248.151 217.4 247.455 215.956 247.455H213.335V254ZM214.719 252.869V251.13H215.879C216.544 251.13 216.956 251.513 216.956 252.054C216.956 252.546 216.62 252.869 215.847 252.869H214.719ZM214.719 250.194V248.573H215.77C216.384 248.573 216.732 248.89 216.732 249.363C216.732 249.88 216.31 250.194 215.745 250.194H214.719ZM221.206 254H222.59V251.296H225.399V254H226.78V247.455H225.399V250.155H222.59V247.455H221.206V254ZM229.214 254.093C229.94 254.093 230.41 253.776 230.649 253.319H230.688V254H231.979V250.689C231.979 249.519 230.988 249.027 229.895 249.027C228.719 249.027 227.945 249.589 227.757 250.484L229.016 250.587C229.109 250.261 229.4 250.021 229.889 250.021C230.352 250.021 230.617 250.254 230.617 250.657V250.676C230.617 250.993 230.282 251.034 229.428 251.117C228.457 251.207 227.584 251.533 227.584 252.629C227.584 253.6 228.278 254.093 229.214 254.093ZM229.604 253.153C229.185 253.153 228.885 252.958 228.885 252.584C228.885 252.201 229.201 252.012 229.681 251.945C229.978 251.903 230.464 251.833 230.627 251.724V252.245C230.627 252.76 230.202 253.153 229.604 253.153ZM234.316 247.455H232.954V254H234.316V247.455ZM236.687 247.455H235.325V254H236.687V247.455Z" fill="#7F838B"/>
<path d="M97.0881 201H99.8846C101.355 201 102.138 200.233 102.138 199.191C102.138 198.223 101.444 197.638 100.7 197.603V197.539C101.38 197.385 101.882 196.903 101.882 196.132C101.882 195.151 101.154 194.455 99.7088 194.455H97.0881V201ZM98.472 199.869V198.13H99.6321C100.297 198.13 100.709 198.513 100.709 199.054C100.709 199.546 100.374 199.869 99.6002 199.869H98.472ZM98.472 197.194V195.573H99.5235C100.137 195.573 100.486 195.89 100.486 196.363C100.486 196.88 100.064 197.194 99.4979 197.194H98.472ZM108.51 196.337H109.837C109.817 195.17 108.859 194.365 107.401 194.365C105.966 194.365 104.915 195.158 104.921 196.347C104.918 197.312 105.599 197.865 106.704 198.13L107.417 198.309C108.13 198.482 108.526 198.686 108.529 199.127C108.526 199.607 108.072 199.933 107.369 199.933C106.65 199.933 106.132 199.6 106.088 198.945H104.748C104.784 200.361 105.797 201.093 107.385 201.093C108.983 201.093 109.923 200.329 109.926 199.13C109.923 198.04 109.101 197.462 107.964 197.206L107.376 197.066C106.807 196.935 106.331 196.724 106.34 196.254C106.34 195.832 106.714 195.522 107.392 195.522C108.053 195.522 108.459 195.822 108.51 196.337ZM112.112 198.162C112.115 197.529 112.492 197.158 113.042 197.158C113.588 197.158 113.918 197.516 113.914 198.117V201H115.276V197.874C115.276 196.73 114.605 196.027 113.582 196.027C112.853 196.027 112.326 196.385 112.105 196.957H112.048V196.091H110.75V201H112.112V198.162ZM118.486 201.096C119.975 201.096 120.902 200.076 120.902 198.565C120.902 197.043 119.975 196.027 118.486 196.027C116.997 196.027 116.07 197.043 116.07 198.565C116.07 200.076 116.997 201.096 118.486 201.096ZM118.492 200.041C117.805 200.041 117.454 199.412 117.454 198.555C117.454 197.699 117.805 197.066 118.492 197.066C119.167 197.066 119.518 197.699 119.518 198.555C119.518 199.412 119.167 200.041 118.492 200.041ZM122.552 201H123.99L124.834 197.913H124.894L125.738 201H127.18L128.512 196.091H127.138L126.39 199.37H126.349L125.543 196.091H124.191L123.399 199.389H123.354L122.593 196.091H121.216L122.552 201ZM129.158 201H130.519V198.053C130.519 197.51 130.864 197.149 131.318 197.149C131.766 197.149 132.066 197.456 132.066 197.938V201H133.386V198.002C133.386 197.494 133.677 197.149 134.172 197.149C134.607 197.149 134.933 197.42 134.933 197.967V201H136.291V197.699C136.291 196.634 135.658 196.027 134.744 196.027C134.025 196.027 133.466 196.395 133.265 196.957H133.213C133.057 196.388 132.555 196.027 131.881 196.027C131.219 196.027 130.717 196.379 130.513 196.957H130.455V196.091H129.158V201ZM138.686 201.093C139.411 201.093 139.881 200.776 140.121 200.319H140.159V201H141.45V197.689C141.45 196.519 140.459 196.027 139.366 196.027C138.19 196.027 137.417 196.589 137.228 197.484L138.487 197.587C138.58 197.261 138.871 197.021 139.36 197.021C139.823 197.021 140.089 197.254 140.089 197.657V197.676C140.089 197.993 139.753 198.034 138.9 198.117C137.928 198.207 137.056 198.533 137.056 199.629C137.056 200.6 137.749 201.093 138.686 201.093ZM139.075 200.153C138.657 200.153 138.356 199.958 138.356 199.584C138.356 199.201 138.673 199.012 139.152 198.945C139.449 198.903 139.935 198.833 140.098 198.724V199.245C140.098 199.76 139.673 200.153 139.075 200.153ZM143.787 198.162C143.79 197.529 144.167 197.158 144.717 197.158C145.263 197.158 145.593 197.516 145.589 198.117V201H146.951V197.874C146.951 196.73 146.28 196.027 145.257 196.027C144.528 196.027 144.001 196.385 143.78 196.957H143.723V196.091H142.425V201H143.787V198.162Z" fill="#7F838B"/>
<path d="M204.909 174H207.706C209.176 174 209.959 173.233 209.959 172.191C209.959 171.223 209.265 170.638 208.521 170.603V170.539C209.201 170.385 209.703 169.903 209.703 169.132C209.703 168.151 208.974 167.455 207.53 167.455H204.909V174ZM206.293 172.869V171.13H207.453C208.118 171.13 208.53 171.513 208.53 172.054C208.53 172.546 208.195 172.869 207.421 172.869H206.293ZM206.293 170.194V168.573H207.344C207.958 168.573 208.306 168.89 208.306 169.363C208.306 169.88 207.885 170.194 207.319 170.194H206.293ZM212.78 174H215.577C217.047 174 217.83 173.233 217.83 172.191C217.83 171.223 217.136 170.638 216.392 170.603V170.539C217.073 170.385 217.574 169.903 217.574 169.132C217.574 168.151 216.846 167.455 215.401 167.455H212.78V174ZM214.164 172.869V171.13H215.324C215.989 171.13 216.401 171.513 216.401 172.054C216.401 172.546 216.066 172.869 215.292 172.869H214.164ZM214.164 170.194V168.573H215.216C215.829 168.573 216.178 168.89 216.178 169.363C216.178 169.88 215.756 170.194 215.19 170.194H214.164ZM220.024 174.093C220.749 174.093 221.219 173.776 221.459 173.319H221.497V174H222.788V170.689C222.788 169.519 221.798 169.027 220.705 169.027C219.528 169.027 218.755 169.589 218.566 170.484L219.826 170.587C219.918 170.261 220.209 170.021 220.698 170.021C221.162 170.021 221.427 170.254 221.427 170.657V170.676C221.427 170.993 221.091 171.034 220.238 171.117C219.266 171.207 218.394 171.533 218.394 172.629C218.394 173.6 219.087 174.093 220.024 174.093ZM220.414 173.153C219.995 173.153 219.695 172.958 219.695 172.584C219.695 172.201 220.011 172.012 220.49 171.945C220.788 171.903 221.273 171.833 221.436 171.724V172.245C221.436 172.76 221.011 173.153 220.414 173.153ZM225.982 174.096C227.289 174.096 228.11 173.329 228.174 172.201H226.889C226.809 172.725 226.464 173.019 225.998 173.019C225.362 173.019 224.949 172.485 224.949 171.545C224.949 170.619 225.365 170.088 225.998 170.088C226.496 170.088 226.816 170.417 226.889 170.906H228.174C228.117 169.772 227.257 169.027 225.975 169.027C224.486 169.027 223.565 170.059 223.565 171.565C223.565 173.057 224.47 174.096 225.982 174.096ZM228.965 174H230.326V172.44L230.694 172.022L232.033 174H233.628L231.713 171.216L233.535 169.091H231.972L230.4 170.954H230.326V167.455H228.965V174Z" fill="#7F838B"/>
<path d="M302.809 185H305.605C307.075 185 307.858 184.233 307.858 183.191C307.858 182.223 307.165 181.638 306.42 181.603V181.539C307.101 181.385 307.603 180.903 307.603 180.132C307.603 179.151 306.874 178.455 305.429 178.455H302.809V185ZM304.192 183.869V182.13H305.353C306.017 182.13 306.43 182.513 306.43 183.054C306.43 183.546 306.094 183.869 305.321 183.869H304.192ZM304.192 181.194V179.573H305.244C305.858 179.573 306.206 179.89 306.206 180.363C306.206 180.88 305.784 181.194 305.218 181.194H304.192ZM310.68 185H312.064V182.296H314.873V185H316.254V178.455H314.873V181.155H312.064V178.455H310.68V185ZM320.436 182.91C320.439 183.568 319.989 183.913 319.5 183.913C318.985 183.913 318.653 183.552 318.65 182.974V180.091H317.288V183.217C317.291 184.364 317.962 185.064 318.95 185.064C319.688 185.064 320.219 184.684 320.439 184.108H320.49V185H321.798V180.091H320.436V182.91ZM325.417 180.091H324.493V178.915H323.132V180.091H322.46V181.114H323.132V183.67C323.125 184.632 323.78 185.109 324.768 185.067C325.12 185.054 325.369 184.984 325.506 184.939L325.292 183.926C325.225 183.939 325.081 183.971 324.953 183.971C324.682 183.971 324.493 183.869 324.493 183.491V181.114H325.417V180.091Z" fill="#7F838B"/>
<path d="M525.534 178L526.02 176.507H528.381L528.867 178H530.35L528.094 171.455H526.31L524.051 178H525.534ZM526.371 175.427L527.177 172.95H527.228L528.033 175.427H526.371ZM533.059 178H534.443V175.68H535.453L536.693 178H538.221L536.83 175.456C537.575 175.136 537.987 174.488 537.987 173.593C537.987 172.292 537.128 171.455 535.641 171.455H533.059V178ZM534.443 174.567V172.586H535.376C536.175 172.586 536.562 172.941 536.562 173.593C536.562 174.241 536.175 174.567 535.383 174.567H534.443ZM540.259 178.093C540.984 178.093 541.454 177.776 541.694 177.319H541.732V178H543.023V174.689C543.023 173.519 542.032 173.027 540.939 173.027C539.763 173.027 538.99 173.589 538.801 174.484L540.06 174.587C540.153 174.261 540.444 174.021 540.933 174.021C541.396 174.021 541.662 174.254 541.662 174.657V174.676C541.662 174.993 541.326 175.034 540.473 175.117C539.501 175.207 538.629 175.533 538.629 176.629C538.629 177.6 539.322 178.093 540.259 178.093ZM540.648 177.153C540.23 177.153 539.929 176.958 539.929 176.584C539.929 176.201 540.246 176.012 540.725 175.945C541.022 175.903 541.508 175.833 541.671 175.724V176.245C541.671 176.76 541.246 177.153 540.648 177.153ZM546.638 173.091H545.664V172.762C545.664 172.429 545.798 172.234 546.197 172.234C546.36 172.234 546.526 172.27 546.635 172.305L546.875 171.282C546.705 171.231 546.331 171.148 545.913 171.148C544.989 171.148 544.302 171.669 544.302 172.736V173.091H543.608V174.114H544.302V178H545.664V174.114H546.638V173.091ZM550 173.091H549.077V171.915H547.715V173.091H547.044V174.114H547.715V176.67C547.709 177.632 548.364 178.109 549.351 178.067C549.703 178.054 549.952 177.984 550.09 177.939L549.876 176.926C549.808 176.939 549.665 176.971 549.537 176.971C549.265 176.971 549.077 176.869 549.077 176.491V174.114H550V173.091ZM552.991 178.096C554.205 178.096 555.023 177.505 555.215 176.594L553.956 176.511C553.818 176.885 553.467 177.08 553.013 177.08C552.332 177.08 551.901 176.629 551.901 175.897V175.894H555.244V175.52C555.244 173.852 554.234 173.027 552.936 173.027C551.492 173.027 550.555 174.053 550.555 175.568C550.555 177.124 551.479 178.096 552.991 178.096ZM551.901 175.05C551.93 174.491 552.355 174.043 552.959 174.043C553.55 174.043 553.959 174.465 553.962 175.05H551.901ZM556.051 178H557.413V175.223C557.413 174.619 557.854 174.203 558.455 174.203C558.643 174.203 558.902 174.235 559.03 174.277V173.069C558.909 173.04 558.739 173.021 558.602 173.021C558.052 173.021 557.601 173.34 557.422 173.947H557.371V173.091H556.051V178ZM563.737 174.491C563.616 173.586 562.887 173.027 561.647 173.027C560.391 173.027 559.563 173.609 559.567 174.555C559.563 175.29 560.027 175.766 560.986 175.958L561.836 176.127C562.264 176.213 562.459 176.37 562.465 176.616C562.459 176.907 562.143 177.115 561.666 177.115C561.181 177.115 560.858 176.907 560.775 176.507L559.436 176.578C559.563 177.517 560.362 178.096 561.663 178.096C562.935 178.096 563.846 177.447 563.849 176.479C563.846 175.769 563.383 175.344 562.43 175.149L561.542 174.97C561.085 174.871 560.915 174.714 560.919 174.478C560.915 174.184 561.248 173.992 561.67 173.992C562.143 173.992 562.424 174.251 562.491 174.567L563.737 174.491Z" fill="#7F838B"/>
<path d="M468.078 255L468.564 253.507H470.925L471.411 255H472.894L470.638 248.455H468.854L466.595 255H468.078ZM468.915 252.427L469.721 249.95H469.772L470.577 252.427H468.915ZM479.154 250.337H480.48C480.461 249.17 479.502 248.365 478.045 248.365C476.61 248.365 475.558 249.158 475.565 250.347C475.561 251.312 476.242 251.865 477.348 252.13L478.061 252.309C478.773 252.482 479.17 252.686 479.173 253.127C479.17 253.607 478.716 253.933 478.013 253.933C477.294 253.933 476.776 253.6 476.731 252.945H475.392C475.427 254.361 476.44 255.093 478.029 255.093C479.627 255.093 480.566 254.329 480.57 253.13C480.566 252.04 479.745 251.462 478.607 251.206L478.019 251.066C477.45 250.935 476.974 250.724 476.984 250.254C476.984 249.832 477.358 249.522 478.035 249.522C478.697 249.522 479.103 249.822 479.154 250.337ZM483.612 255.096C484.919 255.096 485.74 254.329 485.804 253.201H484.52C484.44 253.725 484.095 254.019 483.628 254.019C482.992 254.019 482.58 253.485 482.58 252.545C482.58 251.619 482.995 251.088 483.628 251.088C484.126 251.088 484.446 251.417 484.52 251.906H485.804C485.747 250.772 484.887 250.027 483.606 250.027C482.116 250.027 481.196 251.059 481.196 252.565C481.196 254.057 482.1 255.096 483.612 255.096ZM486.595 255H487.957V252.223C487.957 251.619 488.398 251.203 488.999 251.203C489.187 251.203 489.446 251.235 489.574 251.277V250.069C489.452 250.04 489.283 250.021 489.146 250.021C488.596 250.021 488.145 250.34 487.966 250.947H487.915V250.091H486.595V255ZM492.205 255.096C493.42 255.096 494.238 254.505 494.43 253.594L493.171 253.511C493.033 253.885 492.682 254.08 492.228 254.08C491.547 254.08 491.116 253.629 491.116 252.897V252.894H494.459V252.52C494.459 250.852 493.449 250.027 492.151 250.027C490.706 250.027 489.77 251.053 489.77 252.568C489.77 254.124 490.694 255.096 492.205 255.096ZM491.116 252.05C491.144 251.491 491.569 251.043 492.173 251.043C492.765 251.043 493.174 251.465 493.177 252.05H491.116ZM497.503 255.096C498.718 255.096 499.536 254.505 499.728 253.594L498.469 253.511C498.331 253.885 497.98 254.08 497.526 254.08C496.845 254.08 496.413 253.629 496.413 252.897V252.894H499.757V252.52C499.757 250.852 498.747 250.027 497.449 250.027C496.004 250.027 495.068 251.053 495.068 252.568C495.068 254.124 495.992 255.096 497.503 255.096ZM496.413 252.05C496.442 251.491 496.867 251.043 497.471 251.043C498.063 251.043 498.472 251.465 498.475 252.05H496.413ZM501.926 252.162C501.929 251.529 502.306 251.158 502.856 251.158C503.402 251.158 503.731 251.516 503.728 252.117V255H505.09V251.874C505.09 250.73 504.418 250.027 503.396 250.027C502.667 250.027 502.14 250.385 501.919 250.957H501.862V250.091H500.564V255H501.926V252.162Z" fill="#7F838B"/>
<path d="M533.329 319L533.815 317.507H536.176L536.662 319H538.145L535.889 312.455H534.105L531.846 319H533.329ZM534.166 316.427L534.972 313.95H535.023L535.828 316.427H534.166ZM540.854 319H542.238V316.878H543.401C544.907 316.878 545.782 315.98 545.782 314.673C545.782 313.372 544.923 312.455 543.436 312.455H540.854V319ZM542.238 315.769V313.586H543.171C543.97 313.586 544.357 314.021 544.357 314.673C544.357 315.321 543.97 315.769 543.178 315.769H542.238ZM546.575 319H547.936V314.091H546.575V319ZM547.259 313.458C547.664 313.458 547.997 313.148 547.997 312.768C547.997 312.391 547.664 312.081 547.259 312.081C546.856 312.081 546.523 312.391 546.523 312.768C546.523 313.148 546.856 313.458 547.259 313.458ZM548.946 320.841H550.307V318.214H550.349C550.537 318.623 550.95 319.08 551.742 319.08C552.861 319.08 553.733 318.195 553.733 316.552C553.733 314.864 552.822 314.027 551.745 314.027C550.924 314.027 550.531 314.516 550.349 314.915H550.288V314.091H548.946V320.841ZM550.278 316.545C550.278 315.67 550.649 315.11 551.311 315.11C551.985 315.11 552.343 315.695 552.343 316.545C552.343 317.402 551.979 317.996 551.311 317.996C550.656 317.996 550.278 317.421 550.278 316.545ZM556.797 319.096C558.012 319.096 558.83 318.505 559.022 317.594L557.762 317.511C557.625 317.885 557.273 318.08 556.82 318.08C556.139 318.08 555.707 317.629 555.707 316.897V316.894H559.05V316.52C559.05 314.852 558.041 314.027 556.743 314.027C555.298 314.027 554.362 315.053 554.362 316.568C554.362 318.124 555.286 319.096 556.797 319.096ZM555.707 316.05C555.736 315.491 556.161 315.043 556.765 315.043C557.357 315.043 557.766 315.465 557.769 316.05H555.707ZM563.942 315.491C563.821 314.586 563.092 314.027 561.852 314.027C560.596 314.027 559.768 314.609 559.772 315.555C559.768 316.29 560.232 316.766 561.191 316.958L562.041 317.127C562.469 317.213 562.664 317.37 562.67 317.616C562.664 317.907 562.348 318.115 561.871 318.115C561.386 318.115 561.063 317.907 560.98 317.507L559.641 317.578C559.768 318.517 560.567 319.096 561.868 319.096C563.14 319.096 564.051 318.447 564.054 317.479C564.051 316.769 563.588 316.344 562.635 316.149L561.747 315.97C561.29 315.871 561.12 315.714 561.124 315.478C561.12 315.184 561.453 314.992 561.875 314.992C562.348 314.992 562.629 315.251 562.696 315.567L563.942 315.491Z" fill="#7F838B"/>
<path d="M537.217 367L537.703 365.507H540.065L540.551 367H542.034L539.777 360.455H537.994L535.735 367H537.217ZM538.055 364.427L538.86 361.95H538.911L539.717 364.427H538.055ZM550.217 360.455H548.84V364.571H548.782L545.957 360.455H544.743V367H546.127V362.88H546.175L549.022 367H550.217V360.455ZM553.492 367.096C554.706 367.096 555.524 366.505 555.716 365.594L554.457 365.511C554.319 365.885 553.968 366.08 553.514 366.08C552.833 366.08 552.402 365.629 552.402 364.897V364.894H555.745V364.52C555.745 362.852 554.735 362.027 553.437 362.027C551.993 362.027 551.056 363.053 551.056 364.568C551.056 366.124 551.98 367.096 553.492 367.096ZM552.402 364.05C552.43 363.491 552.855 363.043 553.46 363.043C554.051 363.043 554.46 363.465 554.463 364.05H552.402ZM560.637 363.491C560.515 362.586 559.787 362.027 558.547 362.027C557.29 362.027 556.463 362.609 556.466 363.555C556.463 364.29 556.926 364.766 557.885 364.958L558.735 365.127C559.163 365.213 559.358 365.37 559.365 365.616C559.358 365.907 559.042 366.115 558.566 366.115C558.08 366.115 557.757 365.907 557.674 365.507L556.335 365.578C556.463 366.517 557.262 367.096 558.562 367.096C559.835 367.096 560.745 366.447 560.749 365.479C560.745 364.769 560.282 364.344 559.33 364.149L558.441 363.97C557.984 363.871 557.815 363.714 557.818 363.478C557.815 363.184 558.147 362.992 558.569 362.992C559.042 362.992 559.323 363.251 559.39 363.567L560.637 363.491ZM564.136 362.091H563.212V360.915H561.851V362.091H561.18V363.114H561.851V365.67C561.845 366.632 562.5 367.109 563.487 367.067C563.839 367.054 564.088 366.984 564.226 366.939L564.011 365.926C563.944 365.939 563.8 365.971 563.673 365.971C563.401 365.971 563.212 365.869 563.212 365.491V363.114H564.136V362.091Z" fill="#7F838B"/>
<path d="M583.852 438L584.338 436.507H586.7L587.186 438H588.669L586.412 431.455H584.629L582.369 438H583.852ZM584.69 435.427L585.495 432.95H585.546L586.352 435.427H584.69ZM591.377 438H594.174C595.644 438 596.427 437.233 596.427 436.191C596.427 435.223 595.734 434.638 594.989 434.603V434.539C595.67 434.385 596.171 433.903 596.171 433.132C596.171 432.151 595.443 431.455 593.998 431.455H591.377V438ZM592.761 436.869V435.13H593.921C594.586 435.13 594.999 435.513 594.999 436.054C594.999 436.546 594.663 436.869 593.89 436.869H592.761ZM592.761 434.194V432.573H593.813C594.426 432.573 594.775 432.89 594.775 433.363C594.775 433.88 594.353 434.194 593.787 434.194H592.761ZM599.458 438.096C600.673 438.096 601.491 437.505 601.683 436.594L600.423 436.511C600.286 436.885 599.935 437.08 599.481 437.08C598.8 437.08 598.368 436.629 598.368 435.897V435.894H601.711V435.52C601.711 433.852 600.702 433.027 599.404 433.027C597.959 433.027 597.023 434.053 597.023 435.568C597.023 437.124 597.947 438.096 599.458 438.096ZM598.368 435.05C598.397 434.491 598.822 434.043 599.426 434.043C600.018 434.043 600.427 434.465 600.43 435.05H598.368ZM603.88 431.455H602.519V438H603.88V431.455ZM607.501 433.091H606.578V431.915H605.216V433.091H604.545V434.114H605.216V436.67C605.21 437.632 605.865 438.109 606.852 438.067C607.204 438.054 607.453 437.984 607.591 437.939L607.377 436.926C607.31 436.939 607.166 436.971 607.038 436.971C606.766 436.971 606.578 436.869 606.578 436.491V434.114H607.501V433.091Z" fill="#7F838B"/>
<path d="M386.722 146C388.716 146 389.924 144.766 389.924 142.721C389.924 140.682 388.716 139.455 386.741 139.455H384.401V146H386.722ZM385.785 144.814V140.64H386.667C387.894 140.64 388.543 141.267 388.543 142.721C388.543 144.181 387.894 144.814 386.664 144.814H385.785ZM393.08 146.096C394.294 146.096 395.112 145.505 395.304 144.594L394.045 144.511C393.907 144.885 393.556 145.08 393.102 145.08C392.421 145.08 391.99 144.629 391.99 143.897V143.894H395.333V143.52C395.333 141.852 394.323 141.027 393.025 141.027C391.581 141.027 390.644 142.053 390.644 143.568C390.644 145.124 391.568 146.096 393.08 146.096ZM391.99 143.05C392.019 142.491 392.444 142.043 393.048 142.043C393.639 142.043 394.048 142.465 394.051 143.05H391.99ZM398.78 141.091H397.806V140.762C397.806 140.429 397.94 140.234 398.339 140.234C398.502 140.234 398.668 140.27 398.777 140.305L399.017 139.282C398.847 139.231 398.473 139.148 398.055 139.148C397.131 139.148 396.444 139.669 396.444 140.736V141.091H395.75V142.114H396.444V146H397.806V142.114H398.78V141.091ZM401.592 146.096C402.807 146.096 403.625 145.505 403.817 144.594L402.558 144.511C402.42 144.885 402.069 145.08 401.615 145.08C400.934 145.08 400.503 144.629 400.503 143.897V143.894H403.846V143.52C403.846 141.852 402.836 141.027 401.538 141.027C400.094 141.027 399.157 142.053 399.157 143.568C399.157 145.124 400.081 146.096 401.592 146.096ZM400.503 143.05C400.531 142.491 400.956 142.043 401.561 142.043C402.152 142.043 402.561 142.465 402.564 143.05H400.503ZM406.015 143.162C406.018 142.529 406.395 142.158 406.945 142.158C407.491 142.158 407.82 142.516 407.817 143.117V146H409.179V142.874C409.179 141.73 408.508 141.027 407.485 141.027C406.756 141.027 406.229 141.385 406.008 141.957H405.951V141.091H404.653V146H406.015V143.162ZM411.98 146.08C412.772 146.08 413.185 145.623 413.373 145.214H413.431V146H414.773V139.455H413.415V141.915H413.373C413.191 141.516 412.798 141.027 411.977 141.027C410.9 141.027 409.989 141.864 409.989 143.552C409.989 145.195 410.861 146.08 411.98 146.08ZM412.411 144.996C411.743 144.996 411.379 144.402 411.379 143.545C411.379 142.695 411.737 142.11 412.411 142.11C413.073 142.11 413.444 142.67 413.444 143.545C413.444 144.421 413.066 144.996 412.411 144.996ZM418.049 146.096C419.263 146.096 420.081 145.505 420.273 144.594L419.014 144.511C418.876 144.885 418.525 145.08 418.071 145.08C417.39 145.08 416.959 144.629 416.959 143.897V143.894H420.302V143.52C420.302 141.852 419.292 141.027 417.994 141.027C416.55 141.027 415.613 142.053 415.613 143.568C415.613 145.124 416.537 146.096 418.049 146.096ZM416.959 143.05C416.988 142.491 417.413 142.043 418.017 142.043C418.608 142.043 419.017 142.465 419.02 143.05H416.959ZM421.109 146H422.471V143.223C422.471 142.619 422.912 142.203 423.513 142.203C423.701 142.203 423.96 142.235 424.088 142.277V141.069C423.967 141.04 423.797 141.021 423.66 141.021C423.11 141.021 422.659 141.34 422.48 141.947H422.429V141.091H421.109V146ZM382.684 153.337H384.01C383.991 152.17 383.032 151.365 381.575 151.365C380.14 151.365 379.088 152.158 379.095 153.347C379.092 154.312 379.772 154.865 380.878 155.13L381.591 155.309C382.304 155.482 382.7 155.686 382.703 156.127C382.7 156.607 382.246 156.933 381.543 156.933C380.824 156.933 380.306 156.6 380.261 155.945H378.922C378.957 157.361 379.97 158.093 381.559 158.093C383.157 158.093 384.097 157.329 384.1 156.13C384.097 155.04 383.275 154.462 382.137 154.206L381.549 154.066C380.98 153.935 380.504 153.724 380.514 153.254C380.514 152.832 380.888 152.522 381.565 152.522C382.227 152.522 382.633 152.822 382.684 153.337ZM384.924 158H386.285V153.091H384.924V158ZM385.608 152.458C386.014 152.458 386.346 152.148 386.346 151.768C386.346 151.391 386.014 151.081 385.608 151.081C385.205 151.081 384.873 151.391 384.873 151.768C384.873 152.148 385.205 152.458 385.608 152.458ZM389.104 158.08C389.897 158.08 390.309 157.623 390.498 157.214H390.555V158H391.897V151.455H390.539V153.915H390.498C390.315 153.516 389.922 153.027 389.101 153.027C388.024 153.027 387.113 153.864 387.113 155.552C387.113 157.195 387.985 158.08 389.104 158.08ZM389.536 156.996C388.868 156.996 388.503 156.402 388.503 155.545C388.503 154.695 388.861 154.11 389.536 154.11C390.197 154.11 390.568 154.67 390.568 155.545C390.568 156.421 390.191 156.996 389.536 156.996ZM395.173 158.096C396.388 158.096 397.206 157.505 397.397 156.594L396.138 156.511C396.001 156.885 395.649 157.08 395.195 157.08C394.515 157.08 394.083 156.629 394.083 155.897V155.894H397.426V155.52C397.426 153.852 396.416 153.027 395.119 153.027C393.674 153.027 392.738 154.053 392.738 155.568C392.738 157.124 393.661 158.096 395.173 158.096ZM394.083 155.05C394.112 154.491 394.537 154.043 395.141 154.043C395.732 154.043 396.141 154.465 396.145 155.05H394.083ZM403.812 153.337H405.138C405.119 152.17 404.16 151.365 402.703 151.365C401.268 151.365 400.217 152.158 400.223 153.347C400.22 154.312 400.901 154.865 402.006 155.13L402.719 155.309C403.432 155.482 403.828 155.686 403.831 156.127C403.828 156.607 403.374 156.933 402.671 156.933C401.952 156.933 401.434 156.6 401.389 155.945H400.05C400.086 157.361 401.099 158.093 402.687 158.093C404.285 158.093 405.225 157.329 405.228 156.13C405.225 155.04 404.403 154.462 403.266 154.206L402.677 154.066C402.109 153.935 401.632 153.724 401.642 153.254C401.642 152.832 402.016 152.522 402.693 152.522C403.355 152.522 403.761 152.822 403.812 153.337ZM406.052 159.841H407.414V157.214H407.455C407.644 157.623 408.056 158.08 408.849 158.08C409.967 158.08 410.84 157.195 410.84 155.552C410.84 153.864 409.929 153.027 408.852 153.027C408.031 153.027 407.637 153.516 407.455 153.915H407.395V153.091H406.052V159.841ZM407.385 155.545C407.385 154.67 407.756 154.11 408.417 154.11C409.092 154.11 409.45 154.695 409.45 155.545C409.45 156.402 409.085 156.996 408.417 156.996C407.762 156.996 407.385 156.421 407.385 155.545ZM413.066 158.093C413.792 158.093 414.262 157.776 414.501 157.319H414.54V158H415.831V154.689C415.831 153.519 414.84 153.027 413.747 153.027C412.571 153.027 411.798 153.589 411.609 154.484L412.868 154.587C412.961 154.261 413.252 154.021 413.741 154.021C414.204 154.021 414.469 154.254 414.469 154.657V154.676C414.469 154.993 414.134 155.034 413.28 155.117C412.309 155.207 411.436 155.533 411.436 156.629C411.436 157.6 412.13 158.093 413.066 158.093ZM413.456 157.153C413.038 157.153 412.737 156.958 412.737 156.584C412.737 156.201 413.054 156.012 413.533 155.945C413.83 155.903 414.316 155.833 414.479 155.724V156.245C414.479 156.76 414.054 157.153 413.456 157.153ZM417.775 158H419.213L420.057 154.913H420.117L420.961 158H422.402L423.735 153.091H422.361L421.613 156.37H421.571L420.766 153.091H419.414L418.622 156.389H418.577L417.816 153.091H416.439L417.775 158ZM425.742 155.162C425.745 154.529 426.122 154.158 426.672 154.158C427.219 154.158 427.548 154.516 427.545 155.117V158H428.906V154.874C428.906 153.73 428.235 153.027 427.212 153.027C426.483 153.027 425.956 153.385 425.736 153.957H425.678V153.091H424.38V158H425.742V155.162Z" fill="#7F838B"/>
<path d="M82.4172 405H85.2138C86.6839 405 87.467 404.233 87.467 403.191C87.467 402.223 86.7734 401.638 86.0287 401.603V401.539C86.7095 401.385 87.2113 400.903 87.2113 400.132C87.2113 399.151 86.4826 398.455 85.038 398.455H82.4172V405ZM83.8011 403.869V402.13H84.9613C85.626 402.13 86.0383 402.513 86.0383 403.054C86.0383 403.546 85.7027 403.869 84.9293 403.869H83.8011ZM83.8011 401.194V399.573H84.8526C85.4662 399.573 85.8146 399.89 85.8146 400.363C85.8146 400.88 85.3927 401.194 84.827 401.194H83.8011ZM89.9049 398.455L92.2923 402.686V405H93.6666V402.686L96.0541 398.455H94.504L93.0114 401.273H92.9475L91.455 398.455H89.9049ZM97.921 405.096C99.1355 405.096 99.9537 404.505 100.146 403.594L98.8862 403.511C98.7488 403.885 98.3972 404.08 97.9434 404.08C97.2627 404.08 96.8312 403.629 96.8312 402.897V402.894H100.174V402.52C100.174 400.852 99.1643 400.027 97.8667 400.027C96.4221 400.027 95.4857 401.053 95.4857 402.568C95.4857 404.124 96.4093 405.096 97.921 405.096ZM96.8312 402.05C96.86 401.491 97.285 401.043 97.8891 401.043C98.4803 401.043 98.8894 401.465 98.8926 402.05H96.8312ZM102.343 398.455H100.982V405H102.343V398.455ZM104.714 398.455H103.353V405H104.714V398.455ZM107.942 405.096C109.432 405.096 110.358 404.076 110.358 402.565C110.358 401.043 109.432 400.027 107.942 400.027C106.453 400.027 105.526 401.043 105.526 402.565C105.526 404.076 106.453 405.096 107.942 405.096ZM107.949 404.041C107.261 404.041 106.91 403.412 106.91 402.555C106.91 401.699 107.261 401.066 107.949 401.066C108.623 401.066 108.974 401.699 108.974 402.555C108.974 403.412 108.623 404.041 107.949 404.041ZM112.008 405H113.446L114.29 401.913H114.351L115.194 405H116.636L117.969 400.091H116.594L115.846 403.37H115.805L114.999 400.091H113.648L112.855 403.389H112.81L112.05 400.091H110.672L112.008 405Z" fill="#7F838B"/>
<path d="M396.478 635L397.126 633.01H400.275L400.923 635H402.9L399.891 626.273H397.513L394.501 635H396.478ZM397.594 631.57L398.668 628.267H398.737L399.81 631.57H397.594ZM406.88 628.455H405.648V626.886H403.833V628.455H402.938V629.818H403.833V633.227C403.824 634.51 404.698 635.145 406.015 635.089C406.483 635.072 406.816 634.979 406.999 634.919L406.713 633.568C406.624 633.585 406.432 633.628 406.262 633.628C405.899 633.628 405.648 633.491 405.648 632.989V629.818H406.88V628.455ZM411.436 628.455H410.204V626.886H408.389V628.455H407.494V629.818H408.389V633.227C408.38 634.51 409.254 635.145 410.571 635.089C411.039 635.072 411.372 634.979 411.555 634.919L411.269 633.568C411.18 633.585 410.988 633.628 410.818 633.628C410.456 633.628 410.204 633.491 410.204 632.989V629.818H411.436V628.455ZM414.377 635.124C415.344 635.124 415.97 634.702 416.29 634.092H416.341V635H418.063V630.585C418.063 629.026 416.742 628.369 415.284 628.369C413.716 628.369 412.685 629.119 412.433 630.312L414.112 630.449C414.236 630.014 414.624 629.695 415.276 629.695C415.894 629.695 416.247 630.006 416.247 630.543V630.568C416.247 630.99 415.8 631.045 414.662 631.156C413.367 631.276 412.203 631.71 412.203 633.172C412.203 634.467 413.128 635.124 414.377 635.124ZM414.897 633.871C414.338 633.871 413.938 633.611 413.938 633.112C413.938 632.601 414.36 632.349 414.999 632.26C415.395 632.205 416.043 632.111 416.26 631.966V632.661C416.26 633.347 415.693 633.871 414.897 633.871ZM422.32 635.128C424.063 635.128 425.159 634.105 425.244 632.601H423.531C423.424 633.3 422.964 633.692 422.342 633.692C421.494 633.692 420.944 632.98 420.944 631.727C420.944 630.491 421.498 629.784 422.342 629.784C423.007 629.784 423.433 630.223 423.531 630.875H425.244C425.167 629.362 424.021 628.369 422.312 628.369C420.326 628.369 419.099 629.746 419.099 631.753C419.099 633.743 420.305 635.128 422.32 635.128ZM426.298 635H428.113V632.92L428.603 632.362L430.389 635H432.515L429.963 631.288L432.392 628.455H430.308L428.211 630.939H428.113V626.273H426.298V635ZM435.888 635.128C437.507 635.128 438.598 634.339 438.854 633.125L437.175 633.014C436.992 633.513 436.523 633.773 435.918 633.773C435.01 633.773 434.435 633.172 434.435 632.196V632.192H438.892V631.693C438.892 629.469 437.546 628.369 435.815 628.369C433.889 628.369 432.641 629.737 432.641 631.757C432.641 633.832 433.872 635.128 435.888 635.128ZM434.435 631.067C434.473 630.321 435.04 629.724 435.845 629.724C436.634 629.724 437.179 630.287 437.183 631.067H434.435ZM439.969 635H441.784V631.297C441.784 630.491 442.372 629.938 443.173 629.938C443.425 629.938 443.77 629.98 443.94 630.036V628.425C443.778 628.386 443.553 628.361 443.369 628.361C442.636 628.361 442.036 628.787 441.797 629.597H441.729V628.455H439.969V635ZM450.217 630.321C450.055 629.115 449.083 628.369 447.43 628.369C445.755 628.369 444.652 629.145 444.656 630.406C444.652 631.386 445.27 632.021 446.548 632.277L447.681 632.503C448.252 632.618 448.512 632.827 448.521 633.155C448.512 633.543 448.091 633.82 447.456 633.82C446.808 633.82 446.377 633.543 446.267 633.01L444.481 633.104C444.652 634.357 445.717 635.128 447.451 635.128C449.147 635.128 450.362 634.263 450.366 632.972C450.362 632.026 449.744 631.459 448.474 631.199L447.289 630.96C446.68 630.828 446.454 630.619 446.458 630.304C446.454 629.912 446.897 629.656 447.46 629.656C448.091 629.656 448.466 630.001 448.555 630.423L450.217 630.321Z" fill="#30D9D4"/>
<path d="M379.093 59C381.752 59 383.363 57.3551 383.363 54.6278C383.363 51.9091 381.752 50.2727 379.118 50.2727H375.999V59H379.093ZM377.844 57.419V51.8537H379.02C380.657 51.8537 381.522 52.6889 381.522 54.6278C381.522 56.5753 380.657 57.419 379.016 57.419H377.844ZM387.57 59.1278C389.19 59.1278 390.281 58.3395 390.536 57.125L388.857 57.0142C388.674 57.5128 388.205 57.7727 387.6 57.7727C386.693 57.7727 386.117 57.1719 386.117 56.196V56.1918H390.575V55.6932C390.575 53.4688 389.228 52.3693 387.498 52.3693C385.572 52.3693 384.323 53.7372 384.323 55.7571C384.323 57.8324 385.555 59.1278 387.57 59.1278ZM386.117 55.0668C386.156 54.321 386.722 53.7244 387.528 53.7244C388.316 53.7244 388.862 54.2869 388.866 55.0668H386.117ZM395.171 52.4545H393.872V52.0156C393.872 51.5724 394.051 51.3125 394.583 51.3125C394.801 51.3125 395.022 51.3594 395.167 51.4062L395.487 50.0426C395.261 49.9744 394.762 49.8636 394.204 49.8636C392.972 49.8636 392.056 50.5582 392.056 51.9815V52.4545H391.131V53.8182H392.056V59H393.872V53.8182H395.171V52.4545ZM398.921 59.1278C400.54 59.1278 401.631 58.3395 401.887 57.125L400.208 57.0142C400.025 57.5128 399.556 57.7727 398.951 57.7727C398.043 57.7727 397.468 57.1719 397.468 56.196V56.1918H401.925V55.6932C401.925 53.4688 400.579 52.3693 398.848 52.3693C396.922 52.3693 395.674 53.7372 395.674 55.7571C395.674 57.8324 396.905 59.1278 398.921 59.1278ZM397.468 55.0668C397.506 54.321 398.073 53.7244 398.878 53.7244C399.667 53.7244 400.212 54.2869 400.216 55.0668H397.468ZM404.817 55.2159C404.821 54.3722 405.324 53.8778 406.057 53.8778C406.786 53.8778 407.225 54.3551 407.221 55.1562V59H409.036V54.8324C409.036 53.3068 408.141 52.3693 406.777 52.3693C405.806 52.3693 405.103 52.8466 404.809 53.6094H404.732V52.4545H403.002V59H404.817V55.2159ZM412.771 59.1065C413.827 59.1065 414.377 58.4972 414.629 57.9517H414.705V59H416.495V50.2727H414.684V53.554H414.629C414.386 53.0213 413.861 52.3693 412.766 52.3693C411.33 52.3693 410.116 53.4858 410.116 55.7358C410.116 57.9261 411.279 59.1065 412.771 59.1065ZM413.346 57.6619C412.455 57.6619 411.969 56.8693 411.969 55.7273C411.969 54.5938 412.447 53.8139 413.346 53.8139C414.228 53.8139 414.722 54.5597 414.722 55.7273C414.722 56.8949 414.219 57.6619 413.346 57.6619ZM420.862 59.1278C422.482 59.1278 423.573 58.3395 423.828 57.125L422.149 57.0142C421.966 57.5128 421.497 57.7727 420.892 57.7727C419.985 57.7727 419.409 57.1719 419.409 56.196V56.1918H423.867V55.6932C423.867 53.4688 422.52 52.3693 420.79 52.3693C418.864 52.3693 417.615 53.7372 417.615 55.7571C417.615 57.8324 418.847 59.1278 420.862 59.1278ZM419.409 55.0668C419.448 54.321 420.014 53.7244 420.82 53.7244C421.608 53.7244 422.154 54.2869 422.158 55.0668H419.409ZM424.943 59H426.759V55.2969C426.759 54.4915 427.347 53.9375 428.148 53.9375C428.399 53.9375 428.745 53.9801 428.915 54.0355V52.4247C428.753 52.3864 428.527 52.3608 428.344 52.3608C427.611 52.3608 427.01 52.7869 426.772 53.5966H426.703V52.4545H424.943V59ZM435.192 54.321C435.03 53.1151 434.058 52.3693 432.405 52.3693C430.73 52.3693 429.626 53.1449 429.631 54.4062C429.626 55.3864 430.244 56.0213 431.523 56.277L432.656 56.5028C433.227 56.6179 433.487 56.8267 433.496 57.1548C433.487 57.5426 433.065 57.8196 432.43 57.8196C431.782 57.8196 431.352 57.5426 431.241 57.0099L429.456 57.1037C429.626 58.3565 430.692 59.1278 432.426 59.1278C434.122 59.1278 435.336 58.2628 435.341 56.9716C435.336 56.0256 434.719 55.4588 433.449 55.1989L432.264 54.9602C431.655 54.8281 431.429 54.6193 431.433 54.304C431.429 53.9119 431.872 53.6562 432.434 53.6562C433.065 53.6562 433.44 54.0014 433.53 54.4233L435.192 54.321Z" fill="#E44C4D"/>
<path d="M638.234 193H515.766C514.238 193 513 194.238 513 195.766V256.234C513 257.762 514.238 259 515.766 259H638.234C639.762 259 641 257.762 641 256.234V195.766C641 194.238 639.762 193 638.234 193Z" stroke="#999CA2" stroke-opacity="0.25" stroke-width="1.6"/>
<mask id="mask3_2_610" style="mask-type:alpha" maskUnits="userSpaceOnUse" x="513" y="193" width="128" height="66">
<path d="M636.892 193H517.108C514.839 193 513 194.839 513 197.108V254.892C513 257.161 514.839 259 517.108 259H636.892C639.161 259 641 257.161 641 254.892V197.108C641 194.839 639.161 193 636.892 193Z" fill="#C4C4C4"/>
</mask>
<g mask="url(#mask3_2_610)">
<path d="M473.46 246.326L601.699 118.186L599.095 115.584L470.857 243.724L473.46 246.326Z" fill="#999CA2" fill-opacity="0.15"/>
<path d="M478.668 251.529L606.906 123.389L604.302 120.787L476.064 248.927L478.668 251.529Z" fill="#999CA2" fill-opacity="0.15"/>
<path d="M483.876 256.734L612.114 128.594L609.51 125.992L481.272 254.132L483.876 256.734Z" fill="#999CA2" fill-opacity="0.15"/>
<path d="M489.084 261.937L617.322 133.797L614.718 131.195L486.48 259.335L489.084 261.937Z" fill="#999CA2" fill-opacity="0.15"/>
<path d="M494.291 267.141L622.529 139.001L619.925 136.399L491.687 264.539L494.291 267.141Z" fill="#999CA2" fill-opacity="0.15"/>
<path d="M499.498 272.344L627.736 144.204L625.133 141.602L496.894 269.742L499.498 272.344Z" fill="#999CA2" fill-opacity="0.15"/>
<path d="M504.707 277.548L632.945 149.408L630.341 146.806L502.103 274.946L504.707 277.548Z" fill="#999CA2" fill-opacity="0.15"/>
<path d="M509.913 282.751L638.152 154.611L635.548 152.009L507.309 280.149L509.913 282.751Z" fill="#999CA2" fill-opacity="0.15"/>
<path d="M515.121 287.954L643.36 159.814L640.756 157.212L512.517 285.352L515.121 287.954Z" fill="#999CA2" fill-opacity="0.15"/>
<path d="M520.328 293.158L648.567 165.018L645.963 162.416L517.724 290.556L520.328 293.158Z" fill="#999CA2" fill-opacity="0.15"/>
<path d="M525.536 298.362L653.775 170.222L651.171 167.62L522.932 295.76L525.536 298.362Z" fill="#999CA2" fill-opacity="0.15"/>
<path d="M530.744 303.565L658.983 175.425L656.379 172.823L528.14 300.963L530.744 303.565Z" fill="#999CA2" fill-opacity="0.15"/>
<path d="M535.951 308.769L664.19 180.629L661.586 178.027L533.347 306.167L535.951 308.769Z" fill="#999CA2" fill-opacity="0.15"/>
<path d="M541.159 313.973L669.398 185.833L666.794 183.231L538.556 311.371L541.159 313.973Z" fill="#999CA2" fill-opacity="0.15"/>
<path d="M546.366 319.177L674.605 191.037L672.001 188.435L543.763 316.575L546.366 319.177Z" fill="#999CA2" fill-opacity="0.15"/>
<path d="M551.574 324.381L679.813 196.241L677.209 193.639L548.971 321.779L551.574 324.381Z" fill="#999CA2" fill-opacity="0.15"/>
<path d="M556.782 329.584L685.021 201.444L682.417 198.842L554.179 326.982L556.782 329.584Z" fill="#999CA2" fill-opacity="0.15"/>
<path d="M561.99 334.787L690.229 206.647L687.625 204.045L559.387 332.185L561.99 334.787Z" fill="#999CA2" fill-opacity="0.15"/>
<path d="M567.197 339.991L695.436 211.851L692.832 209.249L564.594 337.389L567.197 339.991Z" fill="#999CA2" fill-opacity="0.15"/>
<path d="M572.405 345.195L700.644 217.055L698.04 214.453L569.802 342.593L572.405 345.195Z" fill="#999CA2" fill-opacity="0.15"/>
<path d="M577.613 350.398L705.852 222.258L703.248 219.656L575.01 347.796L577.613 350.398Z" fill="#999CA2" fill-opacity="0.15"/>
</g>
<path d="M580.311 232L579.654 230.11H575.266L574.609 232H572.407L576.564 220.497H578.454L582.595 232H580.311ZM577.452 223.783L575.891 228.27H579.029L577.485 223.783H577.452Z" fill="#E5EBEF"/>
<path d="M212 328.734V263.266C212 261.738 210.762 260.5 209.234 260.5H158.266C156.738 260.5 155.5 259.262 155.5 257.734V253.766C155.5 252.238 154.262 251 152.734 251H135.266C133.738 251 132.5 252.238 132.5 253.766V339.734C132.5 341.262 133.738 342.5 135.266 342.5H162.234C163.762 342.5 165 341.262 165 339.734V334.266C165 332.738 166.238 331.5 167.766 331.5H209.234C210.762 331.5 212 330.262 212 328.734Z" stroke="#999CA2" stroke-opacity="0.25" stroke-width="1.6"/>
<mask id="mask4_2_610" style="mask-type:alpha" maskUnits="userSpaceOnUse" x="132" y="251" width="80" height="92">
<path d="M212 327.392V264.608C212 262.339 210.161 260.5 207.892 260.5H159.608C157.339 260.5 155.5 258.661 155.5 256.392V255.108C155.5 252.839 153.661 251 151.392 251H136.608C134.339 251 132.5 252.839 132.5 255.108V338.392C132.5 340.661 134.339 342.5 136.608 342.5H160.892C163.161 342.5 165 340.661 165 338.392V335.608C165 333.339 166.839 331.5 169.108 331.5H207.892C210.161 331.5 212 329.661 212 327.392Z" fill="#C4C4C4"/>
</mask>
<g mask="url(#mask4_2_610)">
<path d="M70.4602 318.326L198.699 190.186L196.095 187.584L67.8563 315.724L70.4602 318.326Z" fill="#999CA2" fill-opacity="0.15"/>
<path d="M75.6674 323.529L203.906 195.389L201.302 192.787L73.0636 320.927L75.6674 323.529Z" fill="#999CA2" fill-opacity="0.15"/>
<path d="M80.8754 328.734L209.114 200.594L206.51 197.992L78.2716 326.132L80.8754 328.734Z" fill="#999CA2" fill-opacity="0.15"/>
<path d="M86.0834 333.937L214.322 205.797L211.718 203.195L83.4796 331.335L86.0834 333.937Z" fill="#999CA2" fill-opacity="0.15"/>
<path d="M91.2904 339.141L219.529 211.001L216.925 208.399L88.6866 336.539L91.2904 339.141Z" fill="#999CA2" fill-opacity="0.15"/>
<path d="M96.4975 344.344L224.736 216.204L222.132 213.602L93.8936 341.742L96.4975 344.344Z" fill="#999CA2" fill-opacity="0.15"/>
<path d="M101.706 349.548L229.945 221.408L227.341 218.806L99.1026 346.946L101.706 349.548Z" fill="#999CA2" fill-opacity="0.15"/>
<path d="M106.913 354.751L235.152 226.611L232.548 224.009L104.31 352.149L106.913 354.751Z" fill="#999CA2" fill-opacity="0.15"/>
<path d="M112.121 359.954L240.36 231.814L237.756 229.212L109.518 357.352L112.121 359.954Z" fill="#999CA2" fill-opacity="0.15"/>
<path d="M117.329 365.158L245.567 237.018L242.963 234.416L114.725 362.556L117.329 365.158Z" fill="#999CA2" fill-opacity="0.15"/>
<path d="M122.537 370.362L250.775 242.222L248.171 239.62L119.933 367.76L122.537 370.362Z" fill="#999CA2" fill-opacity="0.15"/>
<path d="M127.745 375.565L255.983 247.425L253.379 244.823L125.141 372.963L127.745 375.565Z" fill="#999CA2" fill-opacity="0.15"/>
<path d="M132.952 380.769L261.19 252.629L258.586 250.027L130.348 378.167L132.952 380.769Z" fill="#999CA2" fill-opacity="0.15"/>
<path d="M138.159 385.973L266.398 257.833L263.794 255.231L135.556 383.371L138.159 385.973Z" fill="#999CA2" fill-opacity="0.15"/>
<path d="M143.366 391.177L271.605 263.037L269.001 260.435L140.762 388.575L143.366 391.177Z" fill="#999CA2" fill-opacity="0.15"/>
<path d="M148.574 396.381L276.813 268.241L274.209 265.639L145.971 393.779L148.574 396.381Z" fill="#999CA2" fill-opacity="0.15"/>
<path d="M153.782 401.584L282.021 273.444L279.417 270.842L151.179 398.982L153.782 401.584Z" fill="#999CA2" fill-opacity="0.15"/>
<path d="M158.99 406.787L287.229 278.647L284.625 276.045L156.387 404.185L158.99 406.787Z" fill="#999CA2" fill-opacity="0.15"/>
<path d="M164.197 411.991L292.436 283.851L289.832 281.249L161.594 409.389L164.197 411.991Z" fill="#999CA2" fill-opacity="0.15"/>
<path d="M169.405 417.195L297.644 289.055L295.04 286.453L166.802 414.593L169.405 417.195Z" fill="#999CA2" fill-opacity="0.15"/>
<path d="M174.613 422.398L302.852 294.258L300.248 291.656L172.01 419.796L174.613 422.398Z" fill="#999CA2" fill-opacity="0.15"/>
</g>
<path d="M171.479 300V288.497H176.359C177.378 288.497 178.194 288.798 178.808 289.401C179.432 289.992 179.745 290.721 179.745 291.586C179.745 292.55 179.328 293.279 178.496 293.772V293.788C178.989 293.996 179.389 294.331 179.695 294.791C180.013 295.24 180.172 295.782 180.172 296.418C180.172 297.513 179.838 298.39 179.169 299.047C178.501 299.682 177.4 300 175.866 300H171.479ZM173.697 297.946H176.376C177.427 297.946 177.953 297.436 177.953 296.418C177.953 295.946 177.811 295.585 177.526 295.333C177.252 295.07 176.874 294.939 176.392 294.939H173.697V297.946ZM173.697 293.131H176.08C176.529 293.131 176.88 293.027 177.132 292.819C177.395 292.6 177.526 292.282 177.526 291.866C177.526 291.427 177.4 291.099 177.148 290.88C176.896 290.66 176.54 290.551 176.08 290.551H173.697V293.131Z" fill="#E5EBEF"/>
<defs>
<linearGradient id="paint0_linear_2_610" x1="475.5" y1="453" x2="422.5" y2="88.5" gradientUnits="userSpaceOnUse">
<stop stop-color="#F44348"/>
<stop offset="0.879073" stop-color="#F44348" stop-opacity="0"/>
</linearGradient>
<linearGradient id="paint1_linear_2_610" x1="466.75" y1="342.5" x2="466.75" y2="606" gradientUnits="userSpaceOnUse">
<stop stop-color="#25E7CB"/>
<stop offset="1" stop-color="#25E6CB" stop-opacity="0"/>
</linearGradient>
</defs>
</svg>
